<svg id="Layer_2" data-name="Layer 2" xmlns="http://www.w3.org/2000/svg" viewBox="0 0 997.5 903.7"><defs><style>.cls-1{fill:#121619;}.cls-2{fill:#161a1c;}.cls-3{fill:#979897;}.cls-4{fill:#f5f5f5;}.cls-5{fill:#f6f6f6;}.cls-6{fill:#fefd01;}.cls-7{fill:#020202;}.cls-8{fill:#fe6701;}.cls-9{fill:#fe6601;}.cls-10{fill:#fe6700;}.cls-11{fill:#f7f8f9;}.cls-12{fill:#f7f7f7;}.cls-13{fill:#fcfcfc;}.cls-14{fill:#023499;}</style></defs><title>lambang-unsri-png-3</title><g id="Layer_1" data-name="Layer 1"><path class="cls-1" d="M799.69,786.52c-2-4.9,1.55-5.9,5.13-8,17.12-10.24,35.51-17.75,54-25,33.39-13.14,67.15-25.23,101.81-34.63,1.33-.37,2.69-.65,4.38-1.06-1.38,9.82-2.7,19.33-4,28.83-1.5,10.55-2.85,21.12-4.67,31.61-.54,3.12.49,3.93,3.07,4.74,12.95,4.08,25.84,8.31,38.95,12.55-.4.43-.58.77-.87.9-31.87,15.31-63.69,30.71-95.66,45.83-8.09,3.82-16.53,7-25.53,8.16-2,.26-4,.31-6.21.46,1.05,3.39,2.62,6.46,3.36,9.86,1.77,8.21-.63,15-6.74,20.48S852.85,890,845,892.59c-24.79,8.17-50.2,13.69-76,17.61-34.8,5.3-69.79,9-104.9,11.45q-53.82,3.78-107.8,4.88c-1.27,0-24.94,0-29.91,0H467.53c-2.16,0-25.75,0-26.45,0q-39.69-.75-79.32-3.15c-57.55-3.56-114.94-8.59-171.31-21.57-14.1-3.25-28.2-6.58-41.61-12.24a60.43,60.43,0,0,1-12.43-6.84c-10.26-7.57-12.93-16.54-8.15-28.32,1-2.42.89-3-1.93-3.4-11.79-1.6-22.65-6.32-33.55-10.77C62.53,827.84,33,813.82,4.08,798.68c-1.11-.58-2.4-.95-3.28-2.27,12.88-4.76,25.64-9.62,38.53-14.15,3.25-1.14,3.86-2.64,3.35-5.84-3.11-19.48-6-39-9.06-58.91a97.84,97.84,0,0,1,14.63,3.76c46.38,14.42,92,30.88,136.28,51,4.19,1.9,8.21,4.19,12.25,6.4,1.17.65,2.69,1.13,2.81,2.88s-2.34,7.68-5.92,9.23-7.46,2.59-11.16,4c-7.07,2.63-14.13,5.3-21.2,7.95,12.83,5.35,93.53,25.69,121.21,30.48,29.22,5.06,58.6,9,88.1,12.15,58.2,6.13,116.51,9.06,175.07,6.65C617,849,687.24,838.83,756.93,824.1c14.92-3.16,29.74-6.79,44.61-10.2,10.08-1.57,30-6.95,32-8.9,1.62-1.87,1.54-3.12-1.12-4.17C821.61,796.53,800.79,788.57,799.69,786.52ZM245.4,868.43l.76.58q-2.11,12.11-4.24,24.22c-.29,1.67-.41,3,1.94,3.18,1.76.12,3,.48,3.43-2.1,1.59-10,3.54-19.93,5.16-29.92.2-1.24,2-3.69-.88-4-2.39-.26-5.12-2.62-7.3,1.3-4.4,8-9.32,15.62-14.08,23.37-.45.73-.49,2.16-2,1.81-1.89-9.86-3.8-19.67-5.62-29.49-.83-4.48-4.69-2.52-7.13-3.27s-1.85,2-2.08,3.16c-1.87,9.94-3.55,19.93-5.36,29.88-.34,1.91-.33,3,2.15,3.33,2.12.27,2.83,0,3.19-2.23,1.41-8.78,3.08-17.51,4.64-26.27,2.44,9.27,4.23,18.56,6.06,27.83.31,1.56.18,3.25,2.6,3.61,2.23.33,3.4-.16,4.59-2.15C235.86,883.58,240.67,876,245.4,868.43ZM692,883.91c3.24-2.52,5.43-5.3,4.21-9.37-1.29-4.28-4.43-6.42-8.8-6.82a28.39,28.39,0,0,0-4.22-.19c-4.6.27-9.2.8-13.8.89-2.42.05-3,.8-2.79,3.12.86,10.48,1.59,21,2.25,31.45.12,1.82.59,2.4,2.5,2.22,5.36-.51,10.74-.69,16.1-1.21a16.13,16.13,0,0,0,8.26-2.81C702.32,896.33,700.74,888.26,692,883.91ZM828.35,873.1c-3.6-2.87-6.39-5.09-9.17-7.32-5.7-4.6-11.46-9.11-17-13.85-2.29-1.95-4.52-1.06-6.42-.08-1.69.86-.23,2.73.09,4.06,2.35,9.71,4.9,19.38,7.16,29.11.55,2.39,1.62,2.41,3.51,2s2.3-1.45,1.76-3.29c-1-3.32-1.78-6.69-2.61-10.05-1.16-4.72-2.28-9.46-3.67-15.24l10.47,8.42c5.39,4.36,10.85,8.64,16.13,13.12,2.11,1.79,3.89.2,5.78,0,1.26-.15,1-1.16.73-2.11q-4-16-8-32.08c-.28-1.17-.51-1.81-2-1.48-2.34.51-3.86.81-2.9,4.11C824.45,856.23,826.17,864.22,828.35,873.1ZM570.82,902.18c-1.18-1.44-2-2.4-2.77-3.39-5.94-7.57-12-15.08-17.76-22.75-1.71-2.26-3.82-1.91-5.86-1.56-2.31.41-1.14,2.54-1.13,3.82.08,9.88.33,19.76.52,29.63,0,1.8-.33,3.43,2.62,3.33,2.72-.09,2.76-1.29,2.7-3.32-.22-7.32-.35-14.63-.43-21.94,0-.86-.66-2,.7-2.72q4.29,5.47,8.55,10.92c4,5,8,10,11.84,15.16,1.62,2.14,3.72,1.53,5.61,1.21s1.07-2.29,1.06-3.51q-.08-14.43-.4-28.86c0-1.86,1.07-4.45-2.83-4.36s-2.35,2.6-2.37,4.25C570.76,885.88,570.82,893.68,570.82,902.18Zm43.23-11.93c-2.44.12-4.87.31-7.31.33-1.83,0-2,1-2,2.48s.63,2,2.07,1.88c2.69-.14,5.39-.08,8.08-.23,1.63-.09,2.08.47,2.32,2.12.55,3.78-.84,5.78-4.4,7.2-13.15,5.26-24.43-1.88-23.27-14.95.57-6.43,4.14-10.75,10.37-12.27s13.62-.26,15.82,5.25c1.08,2.72,3.09,1.07,4.52.5,2.11-.84.28-2.2-.12-3.06a11.86,11.86,0,0,0-7.41-6.27,26,26,0,0,0-15.52-.13c-8.93,2.58-13.7,9.46-13.32,19.1.35,8.92,5.86,15.38,14.71,17.26a29.34,29.34,0,0,0,18.73-2.32c3.82-1.74,5.83-3.91,5.44-8.69C622.1,890.1,622.48,890.07,614.05,890.25Zm105-26.3c-2.51.26-7.36.82-12.22,1.25-1.81.16-2.72.58-2.47,2.75,1.2,10.46,2.28,20.93,3.3,31.41.21,2.18,1.1,2.77,3.2,2.49,4.58-.62,9.19-1,13.78-1.56,11-1.32,16.87-8.67,15.81-19.66C739.37,869,732.71,863.11,719.08,864ZM505.27,893.64c0,5.14.1,10.28,0,15.41-.06,2.11.44,2.87,2.71,2.83,8.6-.13,17.21-.06,25.81,0,1.49,0,2.65.15,2.65-2.08s-1.06-2.43-2.83-2.4c-4.49.08-9,0-13.48,0-9.4,0-9.32,0-9.34-9.28,0-2.42.48-3.35,3.13-3.25,5.76.21,11.55.06,17.33.07,1.44,0,2.75.2,2.71-2.07,0-2-1-2.3-2.61-2.28-4.11.06-8.22,0-12.33,0-8.41,0-8.32,0-8.23-8.48,0-2.18.61-2.81,2.79-2.76,6.16.14,12.32.09,18.48,0,1.45,0,3.43.87,3.46-2.09,0-2.75-1.65-2.35-3.29-2.35-8,0-15.92.08-23.88-.05-2.29,0-3.17.51-3.08,3C505.39,883.11,505.27,888.38,505.27,893.64Zm-39-.39c0,5.14.06,10.28,0,15.42,0,2,0,3.31,2.73,3.27,2.49,0,3.06-.82,2.89-3.09-.19-2.43.19-4.91-.1-7.31-.43-3.6.61-5.07,4.5-4.7a47.35,47.35,0,0,0,12.29-.46c6-1,9.55-5.07,9.52-10.74s-3.43-9.23-9.52-10.18c-6.77-1.05-13.59-.28-20.39-.53-2-.07-1.9,1.17-1.9,2.53C466.25,882.72,466.24,888,466.24,893.25Zm-192.1,7.66c9.38,0,14.16-3.71,15.51-11.65,1.21-7.08,1.84-14.25,3-21.35.4-2.57-1.07-2.57-2.77-2.93-2-.41-2.63.19-2.85,2.21-.77,6.88-1.58,13.77-2.71,20.6-1.19,7.25-4.88,9.61-12.36,8.4-7.08-1.15-9.64-4.54-8.81-11.78q1.13-9.75,2.38-19.49c.21-1.65.45-3.07-2-3.16-1.81-.07-3.37-.55-3.64,2.28-.66,7.15-1.88,14.25-2.48,21.41-.64,7.64,2.67,12.12,10.09,14.19A66,66,0,0,0,274.14,900.91Zm141.3,8.86c-5.05-12-10-23.93-15.08-35.76-1-2.33-6.13-2.18-7.25.15-5.48,11.38-10.87,22.8-16.28,34.19,4.28,1.57,6.67.08,7.77-4,.36-1.34,1.26-2.52,1.69-3.85.65-2,1.82-2.71,4-2.52,4.08.36,8.19.52,12.29.54a3,3,0,0,1,3.25,2.44,44.92,44.92,0,0,1,1.62,4.3C408.29,909.53,410.86,910.83,415.44,909.77Zm384-20.81a2.24,2.24,0,0,0-.21-1C792.14,877.76,785,867.58,778,857.31c-1.35-2-2.94-1-4.47-.89s-2.74.45-2.92,2.36a28.52,28.52,0,0,1-1,4.11c-2.41,10-4.86,19.92-7.16,29.9-.19.8-1.52,2.62.4,2.71s5,.59,5-2.64c0-8.92,5.33-11.57,13.09-11.74a19.29,19.29,0,0,0,4.16-.72,2.49,2.49,0,0,1,3.19,1.29c.8,1.46,2,2.72,2.68,4.21C792.75,889.77,795.43,891.06,799.43,889Zm-455.2,17.42c-4.59-12-9.13-24.09-13.79-36.08-.84-2.17-5.95-2.52-7-.48-6,11.27-11.83,22.61-17.94,34.34,2.9-.34,5.5,1.58,7.27-2.16,4.09-8.63,4.27-8.55,13.92-7.62a3.33,3.33,0,0,0,.76.08c5.45-.77,8.21,1.93,9,7C337.06,906,339.64,907.44,344.23,906.38Zm282.51,1.28c4.47,1.39,6.48-.28,7.26-4.1.33-1.62,1.22-3.11,1.58-4.72.41-1.86,1.37-2.42,3.21-2.46,4.1-.09,8.21-.32,12.29-.69,1.95-.17,3.06.4,3.84,2.21a76.81,76.81,0,0,0,3.57,7.22c1.44,2.61,3.92,1.17,5.85,1,1.45-.11.33-1.41,0-2q-8.46-16.15-17-32.24c-1.23-2.31-6.3-2.2-7.22.2C635.57,883.88,631.19,895.74,626.74,907.66ZM429.57,874v-.56c-4.75,0-9.51.06-14.26,0-1.69,0-2.21.61-2.26,2.24s.39,2.32,2.12,2.26c2.83-.08,5.66.18,8.48,0,2.45-.14,3.31.56,3.21,3.18-.34,8.73-.38,17.47-.63,26.2-.06,2,0,3.31,2.69,3.34,2.52,0,3-.86,3-3.09,0-8.86.3-17.73.33-26.59,0-2.13.56-3,2.81-2.8a54.2,54.2,0,0,0,7.32.2c1.48-.06,3.7,1.27,3.84-2,.15-3.62-2.4-2.23-3.92-2.29C438.05,873.91,433.81,874,429.57,874ZM185.89,847.08c-2.32-1-2.21,1-2.5,2.24-2.39,10.1-4.66,20.23-7.06,30.33-.48,2-.15,3,2,3.5,6.76,1.46,13.49,3.08,20.24,4.63,1.46.34,2.68.53,3.12-1.58s-.56-2.46-2.11-2.79c-4.88-1.08-9.73-2.28-14.64-3.24-2.31-.45-2.78-1.31-2.2-3.63,2.11-8.46,3.8-17,6-25.45C189.54,848.08,188.73,847.09,185.89,847.08Zm163.75,40.63c-.31,6.49-.41,11.36-.83,16.22-.22,2.52.27,3.66,3.09,3.74,6.66.18,13.32.63,20,1,1.73.11,2.89.06,2.93-2.25s-1.13-2.18-2.64-2.25c-4.87-.22-9.73-.69-14.6-.68-2.82,0-3.3-1-3.11-3.57.63-8.82.92-17.67,1.54-26.49.18-2.52-1-2.55-2.87-2.68s-2.67.31-2.73,2.42C350.26,878.58,349.85,884,349.64,887.71ZM166,879.42c1.65,0,1.53-1.39,1.86-2.4,3.22-9.83,6.38-19.69,9.69-29.48.75-2.21.34-3-1.92-3.8s-2.77,0-3.38,1.93c-3.11,9.87-6.39,19.68-9.58,29.52C161.85,877.84,163.16,879.47,166,879.42Zm590.15,13.9c-1.12-10.76-2.25-21-3.19-31.18-.2-2.24-1.12-2.34-3-2.19s-2.9.49-2.62,2.87c1.19,10.07,2.14,20.16,3.22,30.23.18,1.71-.65,3.9,2.8,3.63C756.56,896.43,756.67,895.06,756.18,893.32Z" transform="translate(-0.8 -22.84)"/><path class="cls-2" d="M508.56,22.84c22.31,12.47,46.54,20.48,70.07,30.1,25.16,10.29,50.17,20.88,73.17,35.59,13.71,8.77,26.25,18.88,36.08,32.07,12.84,17.24,14.36,35.16,3.48,53.88C688,180.24,684.57,186,681,191.58c-1.1,1.72-1.14,2.9.29,4.29,1.66,1.61,3.07,3.49,4.83,5,6.09,5.08,4.22,5.76,10.88-.28a58.41,58.41,0,0,0,7.87-9c12.5-17.16,25.6-24,54.08-16.32,16.43,4.45,29.82,14.64,42.66,25.41,22.75,19.06,42.15,41.36,61.32,63.86,11.17,13.1,22.22,26.3,33.48,39.31,9.16,10.6,12.34,23.14,11.09,36.57-3.59,38.6-5.28,77.39-11.23,115.75-2.8,18-7,35.76-15.34,52.16-7.84,15.34-18.86,27.18-36.23,31.57-12.3,3.1-24.49,1.58-36.55-1.52-8.78-2.26-8.76-2.32-12.73,5.67-3.46,7-3.51,7.1,3.35,10.59,4.44,2.26,9.16,4,13.63,6.2,23,11.33,32.94,31,28.93,56.38-3.05,19.36-10.53,37.15-18.66,54.74a416.38,416.38,0,0,1-21,39.77c-12.66,21.12-25.76,42-38.15,63.24-8.31,14.26-19.69,22.8-36.28,25.45-27.61,4.4-54.57,12.07-82,17.64-23.32,4.75-46.8,8.23-70.7,7.36-12.5-.45-24.8-2.16-36.27-7.61-18.7-8.88-28.66-26.91-26.27-47.43,1.48-12.67-1.29-15.71-14.1-15.44-5.52.11-5.59.1-6,5.4-.5,7-1.05,14.08-2.2,21.06C486.32,802.49,473,814,453.17,819.27c-17.27,4.55-34.83,4.29-52.43,2.71-33.35-3-65.68-11.27-98.06-19.23-11.7-2.88-23.6-4.87-35.23-8.06a42.19,42.19,0,0,1-25.76-19.23C219.4,739.79,197,704.2,178.84,666.17c-7.42-15.53-13.75-31.42-16.94-48.47-5.48-29.32,6.06-50.58,33.82-61.62,2.49-1,5-1.92,7.6-2.71,8.05-2.46,8.06-2.43,7-10.91-.1-.77-.11-1.54-.24-2.3-1.08-6.55-3-7.87-9.45-6-7.28,2.09-14.5,4.22-22.14,4.68-16.86,1-30.28-5.45-40.63-18.51-10.51-13.24-16-28.82-20.17-44.91-5.81-22.53-9.17-45.52-12.11-68.55-3.11-24.35-5.25-48.79-4.13-73.4a109.23,109.23,0,0,1,2.43-19.07,35.76,35.76,0,0,1,8.11-15.9c21.62-24.94,42.1-50.87,65.08-74.62,14.68-15.16,30-29.62,47.81-41.11,11.74-7.58,24.13-13.53,38.42-14.55,13.82-1,25.84,2.84,35.84,12.61,5.81,5.69,10.48,12.32,15.48,18.67,1.54,1.95,2.66,2.48,4.94,1.08a75.86,75.86,0,0,0,11.58-8.43c-12.43-11.44-17.19-26.06-17.64-42.4a45.32,45.32,0,0,1,10.79-30.9c12.52-15.24,28.19-26.53,45.27-35.93,26.42-14.54,54.37-25.81,82-37.72,15.53-6.69,31.09-13.3,46.62-20,1.46-.63,3.12-1,4.2-2.34ZM577.62,817.4c15-.18,27-.85,38.82-2.14A561.71,561.71,0,0,0,695,801.37c16.34-4.18,32.58-8.74,47.63-16.67a33.37,33.37,0,0,0,13.59-12.6c6.26-10.43,13-20.55,19.57-30.84,16.66-26.29,33.13-52.7,45.35-81.45,7.34-17.27,13.44-34.93,12.73-54.09-.56-15.35-6.88-27.67-20.12-36-8-5-16.91-7.83-26.17-9.41-2.41-.41-3-1-2.71-3.65,1.14-9.93,6-18.4,9.88-27.28.66-1.52,1.52-1.52,3-1.2,9.63,2,19.08,4.87,28.85,6.23,14.75,2,27.43-1.64,37.26-13.36,7.18-8.58,12-18.45,15.51-28.95,10.53-31.32,13.71-64,16.92-96.57,1.9-19.27,3.07-38.62,5-57.89,1-9.94-1.26-18.53-7.92-25.95-8-8.88-15.2-18.39-23-27.43-21.25-24.58-41.87-49.72-65.83-71.82-13.31-12.27-27.86-22.64-44.73-29.39-20.08-8-36.41-3.78-50.1,12.87-4.49,5.45-8.66,11.15-13,16.71-.82,1-1.42,2.2-3.36,1.1-9.07-5.14-17.21-11.06-21.71-21-1.13-2.5-1-3.72,1.07-5.41a63,63,0,0,0,8.67-9.27c13.17-16.51,13.87-34.3,2-51.74A93.17,93.17,0,0,0,665.21,107C650.58,95,634.06,86,617,78c-32.89-15.37-65.81-30.63-99.86-43.33a34.09,34.09,0,0,0-25.58.18A1262.53,1262.53,0,0,0,369.69,90.15a127.19,127.19,0,0,0-35.61,26.59c-16.55,18-18.79,37.33-6.46,58.38a163.69,163.69,0,0,0,10.08,15c2,2.72,1.51,4.38-.61,6.74-5.46,6.08-12.64,8.95-19.95,11.82-2.52,1-3.84.36-5.45-1.57-5.78-6.88-11.3-14-17.85-20.2-9.3-8.83-20.23-12.56-33.08-10.81-11.43,1.56-21.56,6.26-31.21,12.17-17.88,11-33,25.17-47.63,40.06C158.33,252.41,138.8,280,115.8,304.59a30.5,30.5,0,0,0-8.15,17.87,96.1,96.1,0,0,0,.21,17.71c1.63,21.49,3.47,43,5.15,64.46,1.63,21,3.94,41.83,8.61,62.36,3.42,15,8,29.63,17,42.43,10.58,15.08,25,22.22,43.53,20.89a87.4,87.4,0,0,0,24.93-5.79c2.65-1,3.71-.48,5,1.87,4.14,7.35,5.69,15.22,5.88,23.57.08,3.32-1,5-3.87,6.56-7.93,4.26-16.61,6.57-24.89,9.93-8.7,3.52-14.48,9.73-17.74,18.55-4.11,11.1-3.94,22.35-1.73,33.71,3.87,19.88,11.92,38.24,20.79,56.27,15.81,32.14,35.38,62,54.24,92.41a44.22,44.22,0,0,0,21.18,18c17.49,7.43,35.82,12,54.28,16.08,25.38,5.58,50.92,10.24,76.74,13.29,15.7,1.85,31.36,3.11,47.17.74,18.65-2.8,30.82-12.63,35.86-31,3-11.05,4.28-22.36,5.28-33.71.2-2.21.39-3,3-2.73q12.79,1.58,25.66,2.4c2.89.18,3.68,1.14,3.69,3.83A146.23,146.23,0,0,0,520.2,783c3.44,16.89,13.17,27.91,30.27,31.93C560.43,817.24,570.58,817.12,577.62,817.4Z" transform="translate(-0.8 -22.84)"/><path class="cls-3" d="M201.2,814.22c-13.25-3-27.06-6.22-39.89-11.57,7.07-2.65,14.13-5.32,21.2-7.95,3.7-1.38,7.16-2.52,10.89-4.11,3.16-1.69,6.47-8.67,5.52-10.63,5.12,3.45,6.47,6.88,5.46,12.44A202.26,202.26,0,0,0,201.2,814.22Z" transform="translate(-0.8 -22.84)"/><path class="cls-3" d="M799.14,783.89c1.12,4.46,22.47,12.64,33.31,16.94,2.66,1,2.74,2.3,1.12,4.17-2.15,2.32-22,7.33-32,8.9C800.08,805.2,798.78,792.69,799.14,783.89Z" transform="translate(-0.8 -22.84)"/><path class="cls-4" d="M245.4,868.43c-4.73,7.6-9.54,15.15-14.13,22.83-1.19,2-2.36,2.48-4.59,2.15-2.42-.36-2.29-2-2.6-3.61-1.83-9.27-3.62-18.56-6.06-27.83-1.56,8.76-3.23,17.49-4.64,26.27-.36,2.28-1.07,2.5-3.19,2.23-2.48-.31-2.49-1.42-2.15-3.33,1.81-9.95,3.49-19.94,5.36-29.88.23-1.2-.35-3.9,2.08-3.16s6.3-1.21,7.13,3.27c1.82,9.82,3.73,19.63,5.62,29.49,1.47.35,1.51-1.08,2-1.81,4.76-7.75,9.68-15.42,14.08-23.37,2.18-3.92,4.91-1.56,7.3-1.3,2.84.32,1.08,2.77.88,4-1.62,10-3.57,19.92-5.16,29.92-.41,2.58-1.67,2.22-3.43,2.1-2.35-.15-2.23-1.51-1.94-3.18q2.15-12.11,4.24-24.22a1.66,1.66,0,0,0,0-1.77Z" transform="translate(-0.8 -22.84)"/><path class="cls-4" d="M692,883.91c8.73,4.35,10.31,12.42,3.71,17.28a16.13,16.13,0,0,1-8.26,2.81c-5.36.52-10.74.7-16.1,1.21-1.91.18-2.38-.4-2.5-2.22-.66-10.49-1.39-21-2.25-31.45-.19-2.32.37-3.07,2.79-3.12,4.6-.09,9.2-.62,13.8-.89a28.39,28.39,0,0,1,4.22.19c4.37.4,7.51,2.54,8.8,6.82C697.44,878.61,695.25,881.39,692,883.91Zm-14.15,16.65c4.47-.48,7.69-.61,10.82-1.22s5.33-2.59,5.25-6.11c-.07-3.31-2.06-5.11-5.17-5.74a28,28,0,0,0-8.42.06c-7.18.74-7,.73-6.47,8.18C674.14,899.35,674.67,901.87,677.86,900.56Zm.78-17.28,0,.16c2.67-.33,5.37-.47,8-1s4.67-2.3,4.48-5.37a5,5,0,0,0-4.88-5,32.2,32.2,0,0,0-6.13,0c-7.84.68-7.75.71-7.33,8.55.12,2.32.78,3.32,3.17,2.83A18.37,18.37,0,0,1,678.64,883.28Z" transform="translate(-0.8 -22.84)"/><path class="cls-5" d="M828.35,873.1c-2.18-8.88-3.9-16.87-6.18-24.69-1-3.3.56-3.6,2.9-4.11,1.48-.33,1.71.31,2,1.48q4,16.07,8,32.08c.24.95.53,2-.73,2.11-1.89.21-3.67,1.8-5.78,0-5.28-4.48-10.74-8.76-16.13-13.12L802,858.44c1.39,5.78,2.51,10.52,3.67,15.24.83,3.36,1.63,6.73,2.61,10.05.54,1.84.27,2.85-1.76,3.29s-3,.39-3.51-2c-2.26-9.73-4.81-19.4-7.16-29.11-.32-1.33-1.78-3.2-.09-4.06,1.9-1,4.13-1.87,6.42.08,5.58,4.74,11.34,9.25,17,13.85C822,868,824.75,870.23,828.35,873.1Z" transform="translate(-0.8 -22.84)"/><path class="cls-4" d="M570.82,902.18c0-8.5-.06-16.3,0-24.09,0-1.65-1.46-4.16,2.37-4.25s2.79,2.5,2.83,4.36q.34,14.43.4,28.86c0,1.22,1,3.17-1.06,3.51s-4,.93-5.61-1.21c-3.86-5.12-7.88-10.12-11.84-15.16q-4.26-5.46-8.55-10.92c-1.36.7-.71,1.86-.7,2.72.08,7.31.21,14.62.43,21.94.06,2,0,3.23-2.7,3.32-3,.1-2.59-1.53-2.62-3.33-.19-9.87-.44-19.75-.52-29.63,0-1.28-1.18-3.41,1.13-3.82,2-.35,4.15-.7,5.86,1.56,5.8,7.67,11.82,15.18,17.76,22.75C568.82,899.78,569.64,900.74,570.82,902.18Z" transform="translate(-0.8 -22.84)"/><path class="cls-4" d="M614.05,890.25c8.43-.18,8.05-.15,8.75,8.2.39,4.78-1.62,6.95-5.44,8.69a29.34,29.34,0,0,1-18.73,2.32c-8.85-1.88-14.36-8.34-14.71-17.26-.38-9.64,4.39-16.52,13.32-19.1a26,26,0,0,1,15.52.13,11.86,11.86,0,0,1,7.41,6.27c.4.86,2.23,2.22.12,3.06-1.43.57-3.44,2.22-4.52-.5-2.2-5.51-9.67-6.74-15.82-5.25s-9.8,5.84-10.37,12.27c-1.16,13.07,10.12,20.21,23.27,14.95,3.56-1.42,4.95-3.42,4.4-7.2-.24-1.65-.69-2.21-2.32-2.12-2.69.15-5.39.09-8.08.23-1.44.08-2.07-.31-2.07-1.88s.13-2.47,2-2.48C609.18,890.56,611.61,890.37,614.05,890.25Z" transform="translate(-0.8 -22.84)"/><path class="cls-4" d="M719.08,864c13.63-.84,20.29,5,21.4,16.68,1.06,11-4.83,18.34-15.81,19.66-4.59.55-9.2.94-13.78,1.56-2.1.28-3-.31-3.2-2.49-1-10.48-2.1-21-3.3-31.41-.25-2.17.66-2.59,2.47-2.75C711.72,864.77,716.57,864.21,719.08,864Zm15.72,18.92c-.06-.72-.14-2-.29-3.27-.92-8.25-5.92-12.28-14.12-11.42-2.55.27-5.1.59-7.65.76-2,.14-2.52,1-2.28,2.95.7,5.84,1.19,11.71,1.79,17.57.77,7.52.78,7.53,8.41,6.91a34.72,34.72,0,0,0,3.8-.53C731.77,894.47,734.73,890.9,734.8,882.87Z" transform="translate(-0.8 -22.84)"/><path class="cls-4" d="M505.27,893.64c0-5.26.12-10.53,0-15.79-.09-2.45.79-3,3.08-3,8,.13,15.92.05,23.88.05,1.64,0,3.32-.4,3.29,2.35,0,3-2,2.08-3.46,2.09-6.16.07-12.32.12-18.48,0-2.18-.05-2.77.58-2.79,2.76-.09,8.48-.18,8.48,8.23,8.48,4.11,0,8.22,0,12.33,0,1.64,0,2.57.25,2.61,2.28,0,2.27-1.27,2.07-2.71,2.07-5.78,0-11.57.14-17.33-.07-2.65-.1-3.13.83-3.13,3.25,0,9.28-.06,9.28,9.34,9.28,4.49,0,9,.05,13.48,0,1.77,0,2.83.12,2.83,2.4s-1.16,2.09-2.65,2.08c-8.6,0-17.21-.09-25.81,0-2.27,0-2.77-.72-2.71-2.83C505.37,903.92,505.27,898.78,505.27,893.64Z" transform="translate(-0.8 -22.84)"/><path class="cls-4" d="M466.24,893.25c0-5.26,0-10.53,0-15.79,0-1.36-.07-2.6,1.9-2.53,6.8.25,13.62-.52,20.39.53,6.09.95,9.48,4.62,9.52,10.18s-3.56,9.74-9.52,10.74a47.35,47.35,0,0,1-12.29.46c-3.89-.37-4.93,1.1-4.5,4.7.29,2.4-.09,4.88.1,7.31.17,2.27-.4,3-2.89,3.09-2.76,0-2.76-1.28-2.73-3.27C466.3,903.53,466.24,898.39,466.24,893.25Zm13.94-13.76c-8.41-.09-8.41-.09-8.4,8.15,0,1,0,2.05,0,3.07s.14,1.85,1.39,1.8c4.71-.2,9.47.55,14.15-.55,3.51-.83,5.28-3,5-6.63s-2.57-5.46-6-5.8A59.87,59.87,0,0,0,480.18,879.49Z" transform="translate(-0.8 -22.84)"/><path class="cls-4" d="M274.14,900.91a66,66,0,0,1-6.64-1.27c-7.42-2.07-10.73-6.55-10.09-14.19.6-7.16,1.82-14.26,2.48-21.41.27-2.83,1.83-2.35,3.64-2.28,2.4.09,2.16,1.51,2,3.16q-1.25,9.75-2.38,19.49c-.83,7.24,1.73,10.63,8.81,11.78,7.48,1.21,11.17-1.15,12.36-8.4,1.13-6.83,1.94-13.72,2.71-20.6.22-2,.89-2.62,2.85-2.21,1.7.36,3.17.36,2.77,2.93-1.11,7.1-1.74,14.27-3,21.35C288.3,897.2,283.52,900.93,274.14,900.91Z" transform="translate(-0.8 -22.84)"/><path class="cls-4" d="M415.44,909.77c-4.58,1.06-7.15-.24-8-4.52a44.92,44.92,0,0,0-1.62-4.3,3,3,0,0,0-3.25-2.44c-4.1,0-8.21-.18-12.29-.54-2.17-.19-3.34.48-4,2.52-.43,1.33-1.33,2.51-1.69,3.85-1.1,4.09-3.49,5.58-7.77,4,5.41-11.39,10.8-22.81,16.28-34.19,1.12-2.33,6.25-2.48,7.25-.15C405.45,885.84,410.39,897.73,415.44,909.77Zm-18.89-32.71a123.63,123.63,0,0,1-6.37,14.78c-.73,1.55-.7,2.29,1.33,2.29,3.19,0,6.39.18,9.59.3,1.11,0,2.22.15,1.55-1.56C400.69,887.79,398.73,882.7,396.55,877.06Z" transform="translate(-0.8 -22.84)"/><path class="cls-4" d="M799.43,889c-4,2.1-6.68.81-8.52-3.06-.71-1.49-1.88-2.75-2.68-4.21A2.49,2.49,0,0,0,785,880.4a19.29,19.29,0,0,1-4.16.72c-7.76.17-13.08,2.82-13.09,11.74,0,3.23-3.08,2.73-5,2.64s-.59-1.91-.4-2.71c2.3-10,4.75-19.94,7.16-29.9a28.52,28.52,0,0,0,1-4.11c.18-1.91,1.46-2.29,2.92-2.36s3.12-1.08,4.47.89c7,10.27,14.18,20.45,21.26,30.68A2.24,2.24,0,0,1,799.43,889Zm-14.72-12.5c-3.41-5.3-6.56-10.2-9.91-15.39-1.27,6-2.47,11.63-3.77,17.78Z" transform="translate(-0.8 -22.84)"/><path class="cls-4" d="M344.23,906.38c-4.59,1.06-7.17-.39-7.84-4.87-.76-5.12-3.52-7.82-9-7a3.33,3.33,0,0,1-.76-.08c-9.65-.93-9.83-1-13.92,7.62-1.77,3.74-4.37,1.82-7.27,2.16,6.11-11.73,12-23.07,17.94-34.34,1.08-2,6.19-1.69,7,.48C335.1,882.29,339.64,894.33,344.23,906.38Zm-11.71-15.64-5.82-17.2c-2.53,5.11-4.8,9.75-7.14,14.35-.66,1.31-.83,2.1,1,2.18C324.42,890.23,328.24,890.49,332.52,890.74Z" transform="translate(-0.8 -22.84)"/><path class="cls-4" d="M626.74,907.66c4.45-11.92,8.83-23.78,13.35-35.58.92-2.4,6-2.51,7.22-.2q8.61,16.07,17,32.24c.33.62,1.45,1.92,0,2-1.93.14-4.41,1.58-5.85-1a76.81,76.81,0,0,1-3.57-7.22c-.78-1.81-1.89-2.38-3.84-2.21-4.08.37-8.19.6-12.29.69-1.84,0-2.8.6-3.21,2.46-.36,1.61-1.25,3.1-1.58,4.72C633.22,907.38,631.21,909.05,626.74,907.66Zm17.09-32.45-6,17.34,13.82-.89C649,886,646.42,880.64,643.83,875.21Z" transform="translate(-0.8 -22.84)"/><path class="cls-4" d="M429.57,874c4.24,0,8.48-.11,12.72.05,1.52.06,4.07-1.33,3.92,2.29-.14,3.29-2.36,2-3.84,2a54.2,54.2,0,0,1-7.32-.2c-2.25-.22-2.8.67-2.81,2.8,0,8.86-.29,17.73-.33,26.59,0,2.23-.47,3.12-3,3.09-2.72,0-2.75-1.3-2.69-3.34.25-8.73.29-17.47.63-26.2.1-2.62-.76-3.32-3.21-3.18-2.82.17-5.65-.09-8.48,0-1.73.06-2.17-.63-2.12-2.26s.57-2.27,2.26-2.24c4.75.09,9.51,0,14.26,0Z" transform="translate(-0.8 -22.84)"/><path class="cls-4" d="M185.89,847.08c2.84,0,3.65,1,2.87,4-2.2,8.43-3.89,17-6,25.45-.58,2.32-.11,3.18,2.2,3.63,4.91,1,9.76,2.16,14.64,3.24,1.55.33,2.52.8,2.11,2.79s-1.66,1.92-3.12,1.58c-6.75-1.55-13.48-3.17-20.24-4.63-2.17-.47-2.5-1.51-2-3.5,2.4-10.1,4.67-20.23,7.06-30.33C183.68,848.13,183.57,846.09,185.89,847.08Z" transform="translate(-0.8 -22.84)"/><path class="cls-4" d="M349.64,887.71c.21-3.76.62-9.13.75-14.51.06-2.11.77-2.55,2.73-2.42s3.05.16,2.87,2.68c-.62,8.82-.91,17.67-1.54,26.49-.19,2.59.29,3.58,3.11,3.57,4.87,0,9.73.46,14.6.68,1.51.07,2.68.07,2.64,2.25s-1.2,2.36-2.93,2.25c-6.65-.4-13.31-.85-20-1-2.82-.08-3.31-1.22-3.09-3.74C349.23,899.07,349.33,894.2,349.64,887.71Z" transform="translate(-0.8 -22.84)"/><path class="cls-4" d="M166,879.42c-2.87.05-4.18-1.58-3.33-4.23,3.19-9.84,6.47-19.65,9.58-29.52.61-1.95,1.09-2.71,3.38-1.93s2.67,1.59,1.92,3.8c-3.31,9.79-6.47,19.65-9.69,29.48C167.56,878,167.68,879.43,166,879.42Z" transform="translate(-0.8 -22.84)"/><path class="cls-5" d="M756.18,893.32c.49,1.74.38,3.11-2.75,3.36-3.45.27-2.62-1.92-2.8-3.63-1.08-10.07-2-20.16-3.22-30.23-.28-2.38.63-2.72,2.62-2.87s2.76-.05,3,2.19C753.93,872.36,755.06,882.56,756.18,893.32Z" transform="translate(-0.8 -22.84)"/><path class="cls-6" d="M577.62,817.4c-7-.28-17.19-.16-27.15-2.5-17.1-4-26.83-15-30.27-31.93a146.23,146.23,0,0,1-2.48-28.71c0-2.69-.8-3.65-3.69-3.83q-12.86-.81-25.66-2.4c-2.65-.32-2.84.52-3,2.73-1,11.35-2.25,22.66-5.28,33.71-5,18.41-17.21,28.24-35.86,31-15.81,2.37-31.47,1.11-47.17-.74-25.82-3-51.36-7.71-76.74-13.29-18.46-4.06-36.79-8.65-54.28-16.08a44.22,44.22,0,0,1-21.18-18C226,737,206.39,707.12,190.58,675c-8.87-18-16.92-36.39-20.79-56.27-2.21-11.36-2.38-22.61,1.73-33.71,3.26-8.82,9-15,17.74-18.55,8.28-3.36,17-5.67,24.89-9.93C217,555,218.1,553.28,218,550c-.19-8.35-1.74-16.22-5.88-23.57-1.32-2.35-2.38-2.87-5-1.87a87.4,87.4,0,0,1-24.93,5.79c-18.56,1.33-33-5.81-43.53-20.89-9-12.8-13.61-27.42-17-42.43-4.67-20.53-7-41.4-8.61-62.36-1.68-21.49-3.52-43-5.15-64.46a96.1,96.1,0,0,1-.21-17.71,30.5,30.5,0,0,1,8.15-17.87c23-24.59,42.53-52.18,66.12-76.26,14.59-14.89,29.75-29.1,47.63-40.06,9.65-5.91,19.78-10.61,31.21-12.17,12.85-1.75,23.78,2,33.08,10.81,6.55,6.2,12.07,13.32,17.85,20.2,1.61,1.93,2.93,2.57,5.45,1.57,7.31-2.87,14.49-5.74,19.95-11.82,2.12-2.36,2.63-4,.61-6.74a163.69,163.69,0,0,1-10.08-15c-12.33-21.05-10.09-40.42,6.46-58.38a127.19,127.19,0,0,1,35.61-26.59A1262.53,1262.53,0,0,1,491.52,34.84a34.09,34.09,0,0,1,25.58-.18c34,12.7,67,28,99.86,43.33,17.1,8,33.62,17,48.25,29.05a93.17,93.17,0,0,1,18.18,19.28c11.85,17.44,11.15,35.23-2,51.74a63,63,0,0,1-8.67,9.27c-2,1.69-2.2,2.91-1.07,5.41,4.5,9.94,12.64,15.86,21.71,21,1.94,1.1,2.54-.06,3.36-1.1,4.35-5.56,8.52-11.26,13-16.71,13.69-16.65,30-20.9,50.1-12.87,16.87,6.75,31.42,17.12,44.73,29.39,24,22.1,44.58,47.24,65.83,71.82,7.8,9,15,18.55,23,27.43,6.66,7.42,8.91,16,7.92,25.95-1.93,19.27-3.1,38.62-5,57.89-3.21,32.6-6.39,65.25-16.92,96.57-3.53,10.5-8.33,20.37-15.51,28.95-9.83,11.72-22.51,15.4-37.26,13.36-9.77-1.36-19.22-4.21-28.85-6.23-1.5-.32-2.36-.32-3,1.2-3.87,8.88-8.74,17.35-9.88,27.28-.3,2.68.3,3.24,2.71,3.65,9.26,1.58,18.15,4.37,26.17,9.41,13.24,8.32,19.56,20.64,20.12,36,.71,19.16-5.39,36.82-12.73,54.09-12.22,28.75-28.69,55.16-45.35,81.45-6.52,10.29-13.31,20.41-19.57,30.84a33.37,33.37,0,0,1-13.59,12.6c-15.05,7.93-31.29,12.49-47.63,16.67a561.71,561.71,0,0,1-78.54,13.89C604.57,816.55,592.64,817.22,577.62,817.4ZM231,496.27a9.72,9.72,0,0,0,1.88-.32c12.13-4.59,24.53-4.1,37.1-2.29,10.41,1.5,20.88,2,31.32-.27a3.49,3.49,0,0,0,3.14-3.09c2.41-9.75,1.43-19.52.95-29.36-.23-4.77-2.16-4.5-5.54-3.74-5.85,1.33-11.77,2.33-17.64,3.57-11.92,2.53-23.78,5.37-34.07,12.31-8.38,5.66-14.86,12.89-17.21,23.11l-.33.37Zm472.28-46.16A196.6,196.6,0,0,0,506.08,252.23c-101.84-.08-195.64,82.87-196.2,194.88-.54,106.44,85.31,197.57,195.27,197.79C613.4,645.11,703.32,557.21,703.29,450.11Zm74.11-77.37-4.86,1.88c-9.68,3.69-19.52,5.71-30,4.62-11.22-1.16-22.46-1.24-33.37,2.81-2.77,1-3.88,2.62-4.81,5.23-2.75,7.71-1.16,15.13,1,22.53,2.5,8.55,2.7,8.61,11.53,7.07.13,0,.26,0,.38,0,14.54-2.94,28.55-7.21,40.8-16C767.66,394,774.34,385.07,777.4,372.74ZM253.64,328.49A38,38,0,0,0,266.72,335a20.68,20.68,0,0,1,8.62,4.83,127.54,127.54,0,0,1,9.88,10.25c4.88,5.65,10.17,10.87,16.72,14.62,8.12,4.65,14.69,3.72,21.07-3.11,5-5.38,7.65-12.08,10.18-18.81,1.76-4.7,1.7-4.71-2.92-6.3-1.45-.5-2.87-1.08-4.31-1.62-11-4.13-21.63-9.34-33.08-12.36C279,318.83,266,320.26,253.64,328.49Zm314.7,392.36c-.25-1.23-.31-1.85-.5-2.43-4-12.16-4.32-24.57-3.2-37.24.89-10,1.42-20.2-2.12-30-.82-2.27-1.86-3.17-4.38-3.11-9,.21-18,.22-27,.17-2.36,0-3.3.55-3.45,3.18-1.12,19.09,3.84,36.35,15.57,51.47C549.66,711.07,557.33,717.75,568.34,720.85ZM417.94,182.38a34.53,34.53,0,0,0,3.26,8.1c2.87,5.71,4.7,11.67,4.09,18.11-1.42,15.24,2.15,30,3.82,45,.12,1,.25,1.6,1.54,1.6,11.21.05,22.25-.78,32.58-5.74,1.38-.66,2-1.27,1.79-3.17a106.27,106.27,0,0,0-5.81-23.38c-5.2-13.87-13-25.82-25.64-34.1A39.29,39.29,0,0,0,417.94,182.38Zm-126.88,233a155.72,155.72,0,0,0-19.2.57c-8.84.65-17.58,1.82-25.93,4.8-6.2,2.22-12.08,5.16-15.39,11.4-1.14,2.14-3,4.82-1.61,6.77,1.23,1.71,4.17,0,6.36-.09.24,0,.49-.18.74-.2,7.41-.4,15-1.48,21.62,3.06,12.16,8.33,26.16,8.86,40.1,9.79,2.15.14,3.1-.51,3.52-2.87C303,438.73,305,428.83,307.1,419c.6-2.82-.7-3.49-3-3.52C299.79,415.38,295.42,415.42,291.06,415.42Zm28.3-177.2c3,2.87,5.32,5.41,7.92,7.64a43.19,43.19,0,0,1,13.8,22.56c3.14,11.93,10.6,21.17,19.06,29.73a3.63,3.63,0,0,0,4.42,1A55.11,55.11,0,0,0,388,283c1.85-2.18,1.57-3.53.14-5.54a125.32,125.32,0,0,0-22-24.06c-7.93-6.59-16.46-12.25-26.56-15A36.19,36.19,0,0,0,319.36,238.22Zm437.25,82c-1.4.86-2.2,1.26-2.88,1.79a52.67,52.67,0,0,1-29,11,82.8,82.8,0,0,0-29.57,7.72c-7.78,3.76-7.78,3.77-7,12.2.08.76.24,1.51.38,2.27,1.23,7,4.62,13.3,6.35,20.12.7,2.73,1.62,3.17,4.23,2.37,18-5.45,33.7-14.4,45.86-28.94A47.82,47.82,0,0,0,756.61,320.2ZM401.72,706.71c2.64-8.2,5-15.76,7.53-23.29.29-.86.62-2.8,1.43-2.32,4.91,2.92,6.12-1.85,8-4,7.45-8.77,11.69-19.54,17.49-29.34a5.86,5.86,0,0,0-1.64-8.25c-8-5.85-16.51-10.79-26-13.83-1.79-.58-2.54-.21-3.09,1.47-3.5,10.7-8.26,21-11.29,31.84-2.54,9.15-4.7,18.37-2.75,28A36.67,36.67,0,0,0,401.72,706.71ZM784.6,485.52c-5.83,0-10.89-1.25-16-.83a13.82,13.82,0,0,1-9.43-2.6c-12.76-9-27.32-13.17-42.45-15.78-1.25-.22-2.6-.51-3.46.88-5.65,9.24-9.57,19-8.7,30.1.16,2,.78,3.32,3.37,3.76,8.58,1.48,17.16,2.59,25.86,3.21,12,.87,23.8-.09,35.08-4.54A29.14,29.14,0,0,0,784.6,485.52ZM246.4,550.13c1.58-.7,2.75-1.17,3.88-1.74,10-5.15,20.41-8.94,32-7.43a27.13,27.13,0,0,0,9.15-.8c8.11-1.74,16.36-3.1,23.82-7,1.14-.6,2.6-1,2.49-2.95-.57-10.17-1.91-20.11-6.88-29.25-1.21-2.22-2.36-2.84-4.85-1.86-9.65,3.81-19.43,7.32-28.74,11.9-7.87,3.86-15.21,8.52-21.12,15.16S247.18,540.8,246.4,550.13Zm440.74-317.4a37.34,37.34,0,0,0-8.93,11.55,17.46,17.46,0,0,1-7.18,7.29c-4.5,2.45-9.07,4.76-13.62,7.1-2.86,1.46-5.83,2.76-8,5.2-4.73,5.27-9.71,10.24-15.9,13.82-1.55.9-1.65,2-.89,3.53,1.66,3.32,3,6.8,4.89,10,4,6.83,11.62,10,16.43,16,1,1.26,1.78-.22,2.5-.75a82.13,82.13,0,0,0,17.78-18C686.34,272,692.27,254,687.14,232.73ZM747,592.87a33.42,33.42,0,0,0-9.48-6.11c-6.36-2.69-11-7.27-15.25-12.56-3-3.79-5.16-8.38-9.07-11.38-6.71-5.14-13.68-9.93-20.42-15a4.18,4.18,0,0,0-5.18-.4c-10.77,5.61-16.3,15.16-20,26.15-.47,1.4.11,2.16,1.28,2.77,13.06,6.75,25.77,14.28,40.1,18.29C721.65,598.15,734.16,598.5,747,592.87Zm-161.38-413c0,3.27.09,5.82,0,8.36-.28,6.32-1.85,12.3-6.66,16.69-12.21,11.14-18.18,25.4-21.47,41.17-.53,2.51.18,3.41,2.27,4.31,8,3.43,16,6.92,23.88,10.59,2.35,1.09,3.69.89,4.86-1.52,9.29-19.1,13.68-39.06,10.18-60.26C597.37,191.31,593.81,184.47,585.64,179.89ZM271.15,600.17c4.3-2.24,8.21-4.39,11.23-7.75a15.6,15.6,0,0,1,9.53-5.28,119.79,119.79,0,0,0,43.77-15.64c1.9-1.13,3-2.13,2.41-4.46-2.14-8.36-5-16.4-9.9-23.59-4.6-6.7-4.52-6.59-11.7-2.71-11.62,6.27-21.57,14.73-31.13,23.65C275.2,573.86,271.48,586.11,271.15,600.17Zm515.54-172c-3.51.95-6.35,1.64-9.12,2.5-5,1.54-10.07,2.56-15.08.7-14.18-5.25-28.86-7.53-43.9-8.34-7-.38-7.09-.67-7.3,6.37,0,1.28-.27,2.55-.37,3.82-.65,7.91-1.22,15.82-2,23.72-.26,2.76,1,3.32,3.33,3.09,3.18-.32,6.38-.56,9.57-.77,11.62-.75,23.24-1.64,34.52-4.74C770.32,450.68,781.15,443,786.69,428.16ZM504.12,246.23c3.3.72,4-.64,3.65-3.06-.53-4-1-8.11-1.5-12.17-1.34-12.24-3.33-24.34-8.06-35.78-4.3-10.38-11-18.74-21.4-23.69-1.07-.51-2.23-1.91-3.39-.9-.84.73-.29,2.18.08,3.29,3.53,10.56,2.95,20.94-.38,31.56-3.58,11.39-3.39,23.2-1.47,34.93.25,1.52,0,3.61,2.8,3.77C484.54,244.76,494.61,245.56,504.12,246.23ZM667.55,675.85c2.7.55,3.47-.36,1.75-3.16a26.52,26.52,0,0,0-4.94-6.34,23.29,23.29,0,0,1-7.09-10.78c-1.3-4.14-2.57-8.3-3.78-12.46-3.22-11.05-7.84-21.37-15.44-30.18-1.65-1.91-3.25-2.41-5.95-1.87-10.24,2.05-18,8.25-25.8,14.51-1.44,1.15-1,2-.24,3.21,7.3,11.17,15,22.09,24.93,31.11C641.28,669.18,653.22,674.82,667.55,675.85ZM234.6,383.48c13.63,1.33,25.32,5.88,36.25,12.64,9.64,6,19.83,10.71,31,13.18,1.55.35,2.58.68,3.33-1.21,3.62-9.15,8.43-17.82,10.22-27.69.49-2.69-.22-3.65-2.4-4.63-16.2-7.27-33-10.12-50.56-6.69C252.08,371.1,242.6,375,234.6,383.48ZM484.65,661.59c.09,11.15.67,22.28,3.16,33.18,2.88,12.62,8.41,23.65,19.94,30.7,1.28.78,2.8,2.4,4.05,1.7,1.63-.9.08-2.72-.09-4.15-.15-1.26-.41-2.51-.65-3.77-1.39-7.44-1.3-14.55,2.13-21.7,5.91-12.36,6.3-26,7.71-39.29.21-1.93-.42-2.93-2.34-3.69a72,72,0,0,0-31.23-4.92c-1.91.11-2.79.65-2.71,2.7C484.74,655.42,484.65,658.51,484.65,661.59ZM737,551.77c2.18,0,4.38.15,6.55,0,8.57-.69,16.61-3,23.56-8.31,1.75-1.33,2.77-2.48-.32-3.44-2.56-.8-5-2.55-7.58-2.61-7.69-.19-12.75-4.57-17.68-9.63-2.77-2.84-4.95-6.58-8.58-8.2-8.44-3.75-16.74-7.77-25-11.87-1.09-.54-2.09-1-3.08.21-6.48,7.88-12.16,16.16-14.43,26.39-.64,2.87,0,4.33,2.55,5.77A88.72,88.72,0,0,0,737,551.77ZM639.17,201.61a60.65,60.65,0,0,0-2.53,6.36,35.13,35.13,0,0,1-14.89,20.3c-10.87,7.34-17.78,17.91-23.57,29.38-1.24,2.45-1.07,4.07,1.1,6,3.47,3,6.58,6.5,9.86,9.75,4.33,4.27,9.81,6.44,15.42,8.36,1.43.48,2.29.15,2.87-1.49,3.26-9.2,7.91-17.8,11.71-26.77,4.68-11,8.51-22.27,7.47-34.56A29.18,29.18,0,0,0,639.17,201.61ZM530.46,169.2c.1,1,.13,1.46.19,1.91,1.05,8.28,2.13,16.44-2.22,24.35-7,12.7-10.4,26.6-13.13,40.72a3.79,3.79,0,0,0,1.79,4.44,40.41,40.41,0,0,0,26.36,7.86c7.53-.48,7.34,1,7.55-7.52,0-.64,0-1.28.11-1.92,1.37-12.36,2.29-24.73.64-37.15C549.88,187.82,542.59,177.27,530.46,169.2ZM713.3,638.73c-3.08-2.49-5.3-4.42-7.66-6.15-7.73-5.71-14.06-12.22-15.25-22.46-.37-3.13-2.29-6-4.29-8.5-5.28-6.78-11.86-12.42-16.88-19.42-1.12-1.56-2.29-1-3.7-.57-9.28,2.68-16.22,8.41-21.86,16.08-3.72,5-4,5.08.1,9.87,11.49,13.27,24.53,24.44,41.91,29.25C694.43,639.25,703.33,640.6,713.3,638.73ZM367,205a9.82,9.82,0,0,0,.63,1.62,109.18,109.18,0,0,1,14.66,38.49c1.59,9.42,4.43,18.39,10.35,26.13,1.07,1.4,1.87,2.29,4,1.55,9.2-3.12,18.49-6,27.76-8.88,1.87-.59,2.67-1.19,1.77-3.47a122.24,122.24,0,0,0-13.44-25.84C401.55,218.69,387,207.82,367,205ZM620.7,703.57a23.34,23.34,0,0,0-4.08-9.77,29,29,0,0,1-5.48-18.43c.44-14.28-4-27.47-8.73-40.63-.45-1.26-.91-2.1-2.75-1.7-10.22,2.26-20.46,4.42-30.75,6.36-2.52.47-2.34,1.42-1.74,3.26,3.77,11.48,8.38,22.6,14.9,32.8C591.13,689.62,602.62,700.67,620.7,703.57ZM450.32,722.2c3.65-4.71,6.46-9.46,7.05-14.82.64-5.91,3.16-10.79,6.34-15.45A74.86,74.86,0,0,0,475,666.85a35,35,0,0,1,2.75-8c1.47-2.85.85-4.58-1.62-6.37a54.61,54.61,0,0,0-24.42-9.71c-6.31-.95-6.38-.73-8.65,5.43A80,80,0,0,0,439,685.66,102,102,0,0,0,450.32,722.2ZM305.63,634.78c-.24,1.45.57,4.06,1,6.71.26,1.82,1.11,2.27,2.46.81,1.74-1.87,3.94-3.54,5.06-5.74,3.22-6.35,8.68-9.45,15-11.79,7.8-2.88,15.75-5.49,22.12-11.24,4.11-3.72,8.58-6.93,13.91-8.73a1.78,1.78,0,0,0,1.25-2.67c-3.86-10.33-9.06-19.73-17.35-27.3-2.48-2.27-4.1-1.89-6.45-.11a112,112,0,0,0-27.34,30C309.72,613.48,306,622.94,305.63,634.78ZM726.86,282.57c.25-1.41-.48-3.64-1-5.89-.36-1.7-1.31-1.83-2.26-.42-6,8.83-14.67,12.64-24.89,15-12.62,2.95-23,11-33.94,17.7-1.33.82-.84,1.88-.67,3a45.62,45.62,0,0,0,12.56,25.4c2.8,3,4.86,3,8.09,1a113.92,113.92,0,0,0,30.56-27.3C721.62,303,726.5,294.17,726.86,282.57ZM348.72,680.7A41.7,41.7,0,0,0,359,666.07c1.85-4.43,4.74-6.94,8.8-8.94,13.3-6.54,23.27-16.6,30.64-29.4,1.44-2.49,1.74-4.16-1-6a37.48,37.48,0,0,1-7.64-7.56,46.57,46.57,0,0,0-12.49-10.74c-1.35-.78-2.79-1.64-3.89.42-2.69,5.06-7.14,8.7-10.65,13.1C347.85,635.62,345.17,657,348.72,680.7ZM300.17,276.45a28.83,28.83,0,0,0-13.38,3c-1.13.57-2.05,1.29-2.07,2.53s1.36,1.29,2.21,1.71c8.21,4.09,15.12,9.63,19.9,17.61,1.64,2.75,3.41,5.43,5.05,8.19a54.2,54.2,0,0,0,22.89,21.62c2.1,1,3.58,1.37,5.14-1a34.27,34.27,0,0,1,6.86-7.23A44.89,44.89,0,0,0,357,310c1.49-2.67,1.09-4.29-1.22-6.14-7.83-6.25-15.82-12.29-24.56-17.2C321.59,281.18,311.54,276.76,300.17,276.45Z" transform="translate(-0.8 -22.84)"/><path class="cls-2" d="M677.86,900.56c-3.19,1.31-3.72-1.21-4-4.83-.54-7.45-.71-7.44,6.47-8.18a28,28,0,0,1,8.42-.06c3.11.63,5.1,2.43,5.17,5.74.08,3.52-2.08,5.49-5.25,6.11S682.33,900.08,677.86,900.56Z" transform="translate(-0.8 -22.84)"/><path class="cls-2" d="M678.64,883.28a18.37,18.37,0,0,0-2.68.15c-2.39.49-3.05-.51-3.17-2.83-.42-7.84-.51-7.87,7.33-8.55a32.2,32.2,0,0,1,6.13,0,5,5,0,0,1,4.88,5c.19,3.07-1.76,4.77-4.48,5.37s-5.32.71-8,1Z" transform="translate(-0.8 -22.84)"/><path class="cls-1" d="M734.8,882.87c-.07,8-3,11.6-10.34,13a34.72,34.72,0,0,1-3.8.53c-7.63.62-7.64.61-8.41-6.91-.6-5.86-1.09-11.73-1.79-17.57-.24-2,.32-2.81,2.28-2.95,2.55-.17,5.1-.49,7.65-.76,8.2-.86,13.2,3.17,14.12,11.42C734.66,880.87,734.74,882.15,734.8,882.87Z" transform="translate(-0.8 -22.84)"/><path class="cls-2" d="M480.18,879.49a59.87,59.87,0,0,1,6.14,0c3.44.34,5.74,2.17,6,5.8s-1.51,5.8-5,6.63c-4.68,1.1-9.44.35-14.15.55-1.25,0-1.41-.81-1.39-1.8s0-2,0-3.07C471.77,879.4,471.77,879.4,480.18,879.49Z" transform="translate(-0.8 -22.84)"/><path class="cls-2" d="M396.55,877.06c2.18,5.64,4.14,10.73,6.1,15.81.67,1.71-.44,1.6-1.55,1.56-3.2-.12-6.4-.31-9.59-.3-2,0-2.06-.74-1.33-2.29A123.63,123.63,0,0,0,396.55,877.06Z" transform="translate(-0.8 -22.84)"/><path class="cls-2" d="M784.71,876.46,771,878.85c1.3-6.15,2.5-11.79,3.77-17.78C778.15,866.26,781.3,871.16,784.71,876.46Z" transform="translate(-0.8 -22.84)"/><path class="cls-2" d="M332.52,890.74c-4.28-.25-8.1-.51-11.92-.67-1.87-.08-1.7-.87-1-2.18,2.34-4.6,4.61-9.24,7.14-14.35Z" transform="translate(-0.8 -22.84)"/><path class="cls-2" d="M643.83,875.21c2.59,5.43,5.15,10.78,7.85,16.45l-13.82.89Z" transform="translate(-0.8 -22.84)"/><path class="cls-7" d="M703.29,450.11c0,107.1-89.89,195-198.14,194.79-110-.22-195.81-91.35-195.27-197.79.56-112,94.36-195,196.2-194.88A196.6,196.6,0,0,1,703.29,450.11ZM438.12,310.71C433,306,428,301.35,422.9,296.63c-5.29-4.93-5.27-4.94-11.3-.78-.09.06-.12.2-.28.46,9,8.29,18.12,16.58,27.14,24.94,1.24,1.14,2.15,1.11,3.66.45,3.67-1.61,5.93-3.53,4.3-8.07-.84-2.36-.75-5.05-1.12-7.58-1.26-8.66-2.55-17.32-3.86-26.24a23.55,23.55,0,0,1-2.51,1.2c-3.56,1.16-4.72,3.1-3.81,7.11,1.65,7.21,2.53,14.61,3.73,21.93Zm-39.54,24.23c-1.45,1.14-2.87.09-4.22-.19-7-1.47-14-3-21-4.7-3.71-.91-4.25,2.62-6.24,4.08-1.36,1,.16,1.79.78,2.4,7.8,7.62,15.65,15.19,23.43,22.84,1.16,1.14,1.81,1.26,3.07.05,3.57-3.43,3.55-3.27,0-6.9-4.13-4.3-8.09-8.76-12.1-13.13,6.85,1.49,14,2.72,21,4.7,3.91,1.11,6.15-.13,8.5-2.86,1.27-1.47,1-2.16-.22-3.37-7.77-7.46-15.55-14.92-23.16-22.57-2.47-2.48-3.17,0-4.4,1.09s-2.69,2.09-.48,4.1c5.11,4.66,9.91,9.66,14.84,14.52ZM506.5,580.61A132.16,132.16,0,0,0,638.74,448.76c.1-72.87-59-132.15-131.84-132.23-73-.08-132.28,58.83-132.42,131.64A132.11,132.11,0,0,0,506.5,580.61ZM469.94,600.5c.15,2,.24,2.83.27,3.68.25,7.31.67,14.63.65,21.94,0,3.28,2.35,3,4.1,3.3,1.56.3,3.44,2,4.83-.92,4.89-10.14,10-20.16,15-30.23.25-.51.89-1,.38-1.69-1.13-1.61-7-1.29-7.82.47-2.87,6-5.69,12-8.6,18-.31.65-.2,2-2,1.58,0-7.12-.23-14.3.11-21.46.15-3.23-1.67-3.65-3.82-3.94-2.33-.32-4.82-2.43-6.64,1.61-2.89,6.43-6.52,12.54-10.27,19.59-.15-1.47-.24-1.94-.24-2.41.05-6.8.16-13.6.14-20.41,0-4.51-4.07-3-6.26-3.57s-1.11,2-1.1,3.11c0,10.4.25,20.8.23,31.19,0,2.32.56,3.66,3,3.82,2.26.15,4.63,2.29,6.41-1.49C461.73,615.52,465.66,608.61,469.94,600.5Zm-66.47-20.23c7.09,2.86,11.51,1.76,14.7-3.26,3-4.66,2.21-8.84-2.83-13.6-4.1-3.87-8.48-7.44-12.64-11.24-1.31-1.18-2-.88-3,.33-7,8.18-14,16.34-21.2,24.38-2.35,2.63.33,3.18,1.47,4.29s2.38,3.28,4.36.53c1.71-2.38,3.82-4.49,5.76-6.7,2.67-3,5.29-2.49,6.57,1.46a9,9,0,0,1,.27,3.43c-.26,3.19-.65,6.37-1,9.55-.59,5.84.4,7.47,6.13,10.21C403,593.34,404.71,587.12,403.47,580.27ZM517.93,289.43c.81-.31,1.13-.44,1.45-.55,5.81-1.93,8.39-5.84,7.65-11.62-.65-5.15-4.21-8.27-10.17-8.51s-11.82-.1-17.72-.28c-2-.06-2.3.74-2.29,2.47.06,10.91.11,21.83,0,32.75,0,3,2,2.2,3.34,2s4.21,1.57,4.14-2c-.06-3.08-.09-6.17,0-9.25.05-1.33-.82-3.32.6-3.88a5.93,5.93,0,0,1,5.86.8,14.76,14.76,0,0,1,2.79,3.15c2.21,3.15,4.37,6.33,6.43,9.58a3.08,3.08,0,0,0,3,1.76c2.14-.13,4.3,0,7.1,0C526.27,300,523.68,293.91,517.93,289.43Zm-53.71,22.92c7.8-1.82,15.51-3.77,23.28-5.35,2.83-.57,2.65-1.73,2.13-3.95s-1.05-3.09-3.51-2.33c-3.42,1.06-7,1.7-10.45,2.53-7.32,1.74-7.26,1.73-8.71-5.77-.37-1.9.05-2.78,2-3.19,4.39-.92,8.7-2.28,13.12-2.93,3-.44,2.13-2,1.86-3.72-.33-2.15-1-3.22-3.5-2.51-3.31,1-6.72,1.6-10.09,2.4-5.58,1.32-5.49,1.31-6.59-4.3-.36-1.89-.17-2.66,1.94-3.07,5-1,9.94-2.48,15-3.45,2.64-.52,1.74-2.07,1.36-3.4s.05-3.58-2.81-2.87c-7.58,1.88-15.2,3.61-22.82,5.34-1.41.32-1.9.83-1.53,2.37,2.54,10.85,5,21.71,7.49,32.57C462.59,311.76,462.77,312.85,464.22,312.35Zm165.19,61.21c.14,5,2.4,9.12,5.47,12.84,3.77,4.56,9,5.8,13.75,3.49,5-2.4,7.11-6.8,5.94-12.8-.71-3.64-1.75-7.23-2.38-10.88-.49-2.87,1.15-4.61,3.5-4.13,3.27.66,6.8,7.38,4.73,9.93-2.24,2.77-.75,4.39.41,6.66,1.44,2.81,2.62,1.91,4.17.27,3.81-4,3.9-9.5.2-16-3.84-6.76-9-9.37-14.33-7.24s-7.34,7.34-5.52,15a77,77,0,0,1,1.89,8.23c.45,3.43-2.16,5.43-5.29,4.4-4.46-1.48-7.43-8.66-4.38-12.06s.5-5-.88-7.33c-.91-1.54-1.7-1.05-2.67-.14C631.19,366.44,629.28,369.51,629.41,373.56Zm-76.48-59.82c5.91.09,10-3.07,11.41-8.82,1.24-4.92-.83-8.53-4.54-11.37-3.06-2.33-6.41-4.26-9.43-6.63-2.44-1.92-2.27-4.51,0-5.58,3.39-1.55,9.42,1.41,10.25,5,.48,2.1,4.6,5,6.4,4.08,2.13-1.14,1.29-3.48,1-5.41a8.74,8.74,0,0,0-3.21-5.54,19.69,19.69,0,0,0-15-4.7,9.27,9.27,0,0,0-8.44,8.17c-.68,4.26,1.15,7.53,4.4,10,2.95,2.25,6.14,4.19,9.15,6.37,1.38,1,2.52,2.33,2,4.24a4.81,4.81,0,0,1-3.85,3.39c-4.3,1.06-9.42-2.2-10.23-6.5a5.85,5.85,0,0,0-6.17-4.7c-1.5.11-1.13,1.13-1.21,1.9-.56,5.32,1.18,9.63,5.8,12.51A23,23,0,0,0,552.93,313.74ZM364.65,558.91c7.84,0,12.61-5.09,12.15-11.66-.2-2.86-1.34-5.45-2.29-8.1-.77-2.16-1.82-4.27-1.89-6.63-.05-2.17.92-3.46,3.27-3.15,3.67.49,7,6.59,5.4,9.93-.9,1.92.9,7.31,2.74,7.36,2.37.08,3-2.38,4-4.07a5.87,5.87,0,0,0,.66-2.2c.82-6-2.31-10.35-6.11-14.29s-8.51-4.7-12.57-2.41-5.89,6.89-4.34,12.36c.93,3.32,2.29,6.52,3.27,9.83.55,1.86.77,3.86-1.3,5.15s-3.95.66-5.72-.61c-4.17-3-5-7.24-2.31-11.77,2-3.35-1.62-4-2.79-5.67-1.41-2-2.32.4-3,1.24a11.6,11.6,0,0,0-1.47,13.65C355.2,553.41,358.69,558.52,364.65,558.91ZM625.24,365.34c5-11.78,9.72-23.11,14.62-34.38.79-1.82,1-3.24-.78-4.29s-2.24-4.52-5.37-3.14q-16.53,7.28-33,14.61c-.58.26-1.26.45-1.23,1.23.07,1.7,5.41,5,7,4.31C612.8,341,612.8,341,617.76,346a28,28,0,0,0,2.73,2.72c2.14,1.65,2.87,3.5,1.17,5.84-2.7,3.73-1.79,6.72,1.8,9.21A21.84,21.84,0,0,1,625.24,365.34ZM384.83,373c0-4.87-1.76-8-5.15-10.12-6.76-4.18-13.67-8.11-20.4-12.34-2.27-1.43-3.32-.89-4.25,1.34-.78,1.88-3.14,3.45.4,5.34,6.44,3.44,12.63,7.33,18.92,11,2.27,1.34,3.63,3.17,3.3,6-.69,6-5.91,8.95-11.18,6.09-5.86-3.17-11.7-6.41-17.29-10-2.91-1.88-4.56-1.64-5.54,1.57-.36,1.16-3,2.32-.49,3.71,7.83,4.36,15.19,9.59,23.53,13a9.49,9.49,0,0,0,9.54-1.1A21.74,21.74,0,0,0,384.83,373ZM667.9,537.19c-12.5-2.93-24.47-5.7-36.41-8.58-2.17-.53-3.15.6-3.85,2.16s-3.54,2.66-1.86,5.18c7,10.43,13.93,20.86,21,31.48,1.31-1.85,2.34-3.46,3.54-4.94.91-1.12.93-2.11-.08-3-4.82-4.26-3.38-8.23.44-12.17a8.91,8.91,0,0,0,1.53-2.21c1.38-2.81,3.35-4,6.38-2.48,3.51,1.73,6,.79,7.58-2.81A22.11,22.11,0,0,1,667.9,537.19ZM603,604.52c-9.73-8.23-19.29-16.37-28.93-24.43-2.36-2-3.89.82-5.78,1.43-1.29.41-2.43,1-2.18,3,1.54,12.31,2.91,24.64,4.33,37,2.15-2.14,7.88-.74,6.57-5.44-1.66-6,1.08-8.37,5.85-10.15a13.1,13.1,0,0,0,3.39-1.79c2.12-1.63,3.94-1.45,5.5.66,2.79,3.79,5.93,3.55,9.36,1C601.6,605.33,602.17,605,603,604.52Zm8.31-34.14a10.51,10.51,0,0,1-1.32-.14q-4.58-1.41-9.15-2.86c-6.16-1.92-7.7-1.35-11.43,4.35,4,1.1,7.88,2.5,11.89,3.21,8.35,1.46,15.14,5.21,19.76,12.4,2,3,3.33,1.58,5.27,0,2.1-1.73,2.78-3,.34-5-6.82-5.46-9.7-12.79-10.26-21.37-.25-4-1.33-7.92-2.11-12.28a23.5,23.5,0,0,1-2,1.56c-3.86,2.29-4.71,5.4-3.29,9.65C610.12,563.14,610.52,566.6,611.3,570.38ZM591.93,333.76c1.24-.27,1.54-1.22,2-1.94,3.76-5.36,7.47-10.75,11.21-16.11,1.54-2.21,2.76-5.67,4.78-6.24,2.38-.67,4.75,2.4,6.87,4.12s3,.41,4-1.12,2.2-2.55-.23-4.16c-6.74-4.46-13.3-9.19-19.85-13.93-1.72-1.25-2.53-1.15-3.91.61-1.89,2.43-1.62,3.81,1,5.17,1.36.7,2.46,1.88,3.8,2.61,1.94,1.05,2,2.06.74,3.85-4.87,6.76-9.62,13.62-14.32,20.51-.58.84-2.21,1.82-1.23,2.86A33.73,33.73,0,0,0,591.93,333.76Zm-40.08,282.8c-1.17-7.51-4-15.79-5.68-24.32-.66-3.4-2.59-2.15-4.41-1.79-2.06.4-3.86.69-3,3.82,2,7.26,3.67,14.64,5.5,22,.63,2.56.75,5-2.23,6.11s-4.85-.19-6.08-3c-1.61-3.62-3.58-.19-5.35-.1-2.13.1-1.74,1.59-1.21,3,1.94,5.33,6.38,7.77,12.24,6.67C548.5,627.72,552,623.8,551.85,616.56ZM590,290c-1.23-1.64-3.39-2.14-5.11-3.21s-1.91.53-2.41,1.48c-5,9.38-9.77,18.86-15,28.1-1.8,3.2.4,3.51,2.13,4.57s3.23,1.93,4.67-1c4.68-9.39,9.71-18.6,14.6-27.88C589.19,291.52,589.49,291,590,290ZM404.83,300.61a49.6,49.6,0,0,1-4.2,2.86c-1.77,1-1.53,1.85-.52,3.29,6.29,8.91,12.57,17.83,18.68,26.86,1.87,2.77,3.07.52,4.16-.37s4.2-1,2.08-4c-6.33-8.87-12.5-17.87-18.75-26.81C405.85,301.81,405.35,301.25,404.83,300.61Zm107,297.23c.14-3.07-1.49-3-3.54-2.72-1.82.24-4.17-.76-4,2.88q.87,15.78,1.11,31.58c.06,3.85,2.58,2.18,4.23,2.33s3.56.57,3.4-2.5C512.74,624.16,511.55,603.09,511.8,597.84Zm-87.24,14.52c.63,0,.8-1.39,1.27-2.26,4.84-9,9.51-18.15,14.5-27.1,1.43-2.57.66-3.43-1.6-4.44s-3.56-2.43-5.24,1.06c-4.23,8.76-9,17.24-13.62,25.83C418,608.89,419.69,611.82,424.56,612.36Z" transform="translate(-0.8 -22.84)"/><path class="cls-8" d="M777.4,372.74c-3.06,12.33-9.74,21.22-19.36,28.11-12.25,8.79-26.26,13.06-40.8,16-.12,0-.25,0-.38,0-8.83,1.54-9,1.48-11.53-7.07-2.16-7.4-3.75-14.82-1-22.53.93-2.61,2-4.2,4.81-5.23,10.91-4.05,22.15-4,33.37-2.81,10.51,1.09,20.35-.93,30-4.62Z" transform="translate(-0.8 -22.84)"/><path class="cls-8" d="M253.64,328.49c12.4-8.23,25.4-9.66,39.24-6,11.45,3,22.06,8.23,33.08,12.36,1.44.54,2.86,1.12,4.31,1.62,4.62,1.59,4.68,1.6,2.92,6.3-2.53,6.73-5.17,13.43-10.18,18.81-6.38,6.83-12.95,7.76-21.07,3.11-6.55-3.75-11.84-9-16.72-14.62a127.54,127.54,0,0,0-9.88-10.25,20.68,20.68,0,0,0-8.62-4.83A38,38,0,0,1,253.64,328.49Z" transform="translate(-0.8 -22.84)"/><path class="cls-9" d="M568.34,720.85c-11-3.1-18.68-9.78-25.06-18-11.73-15.12-16.69-32.38-15.57-51.47.15-2.63,1.09-3.2,3.45-3.18,9,0,18,0,27-.17,2.52-.06,3.56.84,4.38,3.11,3.54,9.84,3,20,2.12,30-1.12,12.67-.8,25.08,3.2,37.24C568,719,568.09,719.62,568.34,720.85Z" transform="translate(-0.8 -22.84)"/><path class="cls-9" d="M417.94,182.38a39.29,39.29,0,0,1,15.63,6.4c12.61,8.28,20.44,20.23,25.64,34.1A106.27,106.27,0,0,1,465,246.26c.25,1.9-.41,2.51-1.79,3.17-10.33,5-21.37,5.79-32.58,5.74-1.29,0-1.42-.59-1.54-1.6-1.67-15-5.24-29.74-3.82-45,.61-6.44-1.22-12.4-4.09-18.11A34.53,34.53,0,0,1,417.94,182.38Z" transform="translate(-0.8 -22.84)"/><path class="cls-8" d="M291.06,415.42c4.36,0,8.73,0,13.09,0,2.25,0,3.55.7,3,3.52-2.09,9.87-4.06,19.77-5.83,29.69-.42,2.36-1.37,3-3.52,2.87-13.94-.93-27.94-1.46-40.1-9.79-6.64-4.54-14.21-3.46-21.62-3.06-.25,0-.5.19-.74.2-2.19,0-5.13,1.8-6.36.09-1.39-1.95.47-4.63,1.61-6.77,3.31-6.24,9.19-9.18,15.39-11.4,8.35-3,17.09-4.15,25.93-4.8A155.72,155.72,0,0,1,291.06,415.42Z" transform="translate(-0.8 -22.84)"/><path class="cls-8" d="M319.36,238.22a36.19,36.19,0,0,1,20.24.14c10.1,2.76,18.63,8.42,26.56,15a125.32,125.32,0,0,1,22,24.06c1.43,2,1.71,3.36-.14,5.54a55.11,55.11,0,0,1-23.44,16.2,3.63,3.63,0,0,1-4.42-1c-8.46-8.56-15.92-17.8-19.06-29.73a43.19,43.19,0,0,0-13.8-22.56C324.68,243.63,322.33,241.09,319.36,238.22Z" transform="translate(-0.8 -22.84)"/><path class="cls-8" d="M756.61,320.2A47.82,47.82,0,0,1,745,348.76c-12.16,14.54-27.9,23.49-45.86,28.94-2.61.8-3.53.36-4.23-2.37-1.73-6.82-5.12-13.13-6.35-20.12-.14-.76-.3-1.51-.38-2.27-.8-8.43-.8-8.44,7-12.2A82.8,82.8,0,0,1,724.74,333a52.67,52.67,0,0,0,29-11C754.41,321.46,755.21,321.06,756.61,320.2Z" transform="translate(-0.8 -22.84)"/><path class="cls-8" d="M401.72,706.71A36.67,36.67,0,0,1,391.34,687c-1.95-9.62.21-18.84,2.75-28,3-10.87,7.79-21.14,11.29-31.84.55-1.68,1.3-2,3.09-1.47,9.52,3,18,8,26,13.83a5.86,5.86,0,0,1,1.64,8.25c-5.8,9.8-10,20.57-17.49,29.34-1.85,2.17-3.06,6.94-8,4-.81-.48-1.14,1.46-1.43,2.32C406.75,691,404.36,698.51,401.72,706.71Z" transform="translate(-0.8 -22.84)"/><path class="cls-8" d="M784.6,485.52a29.14,29.14,0,0,1-15.77,14.2c-11.28,4.45-23,5.41-35.08,4.54-8.7-.62-17.28-1.73-25.86-3.21-2.59-.44-3.21-1.78-3.37-3.76-.87-11.11,3.05-20.86,8.7-30.1.86-1.39,2.21-1.1,3.46-.88,15.13,2.61,29.69,6.76,42.45,15.78a13.82,13.82,0,0,0,9.43,2.6C773.71,484.27,778.77,485.47,784.6,485.52Z" transform="translate(-0.8 -22.84)"/><path class="cls-8" d="M246.4,550.13c.78-9.33,3.78-17.24,9.78-24s13.25-11.3,21.12-15.16c9.31-4.58,19.09-8.09,28.74-11.9,2.49-1,3.64-.36,4.85,1.86,5,9.14,6.31,19.08,6.88,29.25.11,2-1.35,2.35-2.49,2.95-7.46,3.91-15.71,5.27-23.82,7a27.13,27.13,0,0,1-9.15.8c-11.62-1.51-22,2.28-32,7.43C249.15,549,248,549.43,246.4,550.13Z" transform="translate(-0.8 -22.84)"/><path class="cls-8" d="M687.14,232.73c5.13,21.22-.8,39.25-12.94,55.79a82.13,82.13,0,0,1-17.78,18c-.72.53-1.5,2-2.5.75-4.81-6.05-12.46-9.19-16.43-16-1.86-3.2-3.23-6.68-4.89-10-.76-1.51-.66-2.63.89-3.53,6.19-3.58,11.17-8.55,15.9-13.82,2.19-2.44,5.16-3.74,8-5.2,4.55-2.34,9.12-4.65,13.62-7.1a17.46,17.46,0,0,0,7.18-7.29A37.34,37.34,0,0,1,687.14,232.73Z" transform="translate(-0.8 -22.84)"/><path class="cls-10" d="M747,592.87c-12.86,5.63-25.37,5.28-38,1.73-14.33-4-27-11.54-40.1-18.29-1.17-.61-1.75-1.37-1.28-2.77,3.72-11,9.25-20.54,20-26.15a4.18,4.18,0,0,1,5.18.4c6.74,5.1,13.71,9.89,20.42,15,3.91,3,6,7.59,9.07,11.38,4.24,5.29,8.89,9.87,15.25,12.56A33.42,33.42,0,0,1,747,592.87Z" transform="translate(-0.8 -22.84)"/><path class="cls-8" d="M585.64,179.89c8.17,4.58,11.73,11.42,13,19.34,3.5,21.2-.89,41.16-10.18,60.26-1.17,2.41-2.51,2.61-4.86,1.52-7.9-3.67-15.88-7.16-23.88-10.59-2.09-.9-2.8-1.8-2.27-4.31,3.29-15.77,9.26-30,21.47-41.17,4.81-4.39,6.38-10.37,6.66-16.69C585.73,185.71,585.64,183.16,585.64,179.89Z" transform="translate(-0.8 -22.84)"/><path class="cls-9" d="M230.94,496.19c2.35-10.22,8.83-17.45,17.21-23.11,10.29-6.94,22.15-9.78,34.07-12.31,5.87-1.24,11.79-2.24,17.64-3.57,3.38-.76,5.31-1,5.54,3.74.48,9.84,1.46,19.61-.95,29.36a3.49,3.49,0,0,1-3.14,3.09c-10.44,2.28-20.91,1.77-31.32.27-12.57-1.81-25-2.3-37.1,2.29a9.72,9.72,0,0,1-1.88.32Z" transform="translate(-0.8 -22.84)"/><path class="cls-10" d="M271.15,600.17c.33-14.06,4.05-26.31,14.21-35.78,9.56-8.92,19.51-17.38,31.13-23.65,7.18-3.88,7.1-4,11.7,2.71,4.92,7.19,7.76,15.23,9.9,23.59.6,2.33-.51,3.33-2.41,4.46a119.79,119.79,0,0,1-43.77,15.64,15.6,15.6,0,0,0-9.53,5.28C279.36,595.78,275.45,597.93,271.15,600.17Z" transform="translate(-0.8 -22.84)"/><path class="cls-8" d="M786.69,428.16c-5.54,14.87-16.37,22.52-30.31,26.35-11.28,3.1-22.9,4-34.52,4.74-3.19.21-6.39.45-9.57.77-2.35.23-3.59-.33-3.33-3.09.74-7.9,1.31-15.81,2-23.72.1-1.27.33-2.54.37-3.82.21-7,.33-6.75,7.3-6.37,15,.81,29.72,3.09,43.9,8.34,5,1.86,10.1.84,15.08-.7C780.34,429.8,783.18,429.11,786.69,428.16Z" transform="translate(-0.8 -22.84)"/><path class="cls-8" d="M504.12,246.23c-9.51-.67-19.58-1.47-29.67-2-2.78-.16-2.55-2.25-2.8-3.77-1.92-11.73-2.11-23.54,1.47-34.93,3.33-10.62,3.91-21,.38-31.56-.37-1.11-.92-2.56-.08-3.29,1.16-1,2.32.39,3.39.9,10.38,4.95,17.1,13.31,21.4,23.69,4.73,11.44,6.72,23.54,8.06,35.78.45,4.06,1,8.12,1.5,12.17C508.09,245.59,507.42,247,504.12,246.23Z" transform="translate(-0.8 -22.84)"/><path class="cls-9" d="M667.55,675.85c-14.33-1-26.27-6.67-36.56-16-10-9-17.63-19.94-24.93-31.11-.77-1.18-1.2-2.06.24-3.21,7.8-6.26,15.56-12.46,25.8-14.51,2.7-.54,4.3,0,5.95,1.87,7.6,8.81,12.22,19.13,15.44,30.18,1.21,4.16,2.48,8.32,3.78,12.46a23.29,23.29,0,0,0,7.09,10.78,26.52,26.52,0,0,1,4.94,6.34C671,675.49,670.25,676.4,667.55,675.85Z" transform="translate(-0.8 -22.84)"/><path class="cls-8" d="M234.6,383.48c8-8.47,17.48-12.38,27.82-14.4,17.57-3.43,34.36-.58,50.56,6.69,2.18,1,2.89,1.94,2.4,4.63-1.79,9.87-6.6,18.54-10.22,27.69-.75,1.89-1.78,1.56-3.33,1.21-11.15-2.47-21.34-7.21-31-13.18C259.92,389.36,248.23,384.81,234.6,383.48Z" transform="translate(-0.8 -22.84)"/><path class="cls-9" d="M484.65,661.59c0-3.08.09-6.17,0-9.24-.08-2.05.8-2.59,2.71-2.7a72,72,0,0,1,31.23,4.92c1.92.76,2.55,1.76,2.34,3.69-1.41,13.33-1.8,26.93-7.71,39.29-3.43,7.15-3.52,14.26-2.13,21.7.24,1.26.5,2.51.65,3.77.17,1.43,1.72,3.25.09,4.15-1.25.7-2.77-.92-4.05-1.7-11.53-7.05-17.06-18.08-19.94-30.7C485.32,683.87,484.74,672.74,484.65,661.59Z" transform="translate(-0.8 -22.84)"/><path class="cls-8" d="M737,551.77a88.72,88.72,0,0,1-44-11.72c-2.59-1.44-3.19-2.9-2.55-5.77,2.27-10.23,8-18.51,14.43-26.39,1-1.2,2-.75,3.08-.21,8.27,4.1,16.57,8.12,25,11.87,3.63,1.62,5.81,5.36,8.58,8.2,4.93,5.06,10,9.44,17.68,9.63,2.54.06,5,1.81,7.58,2.61,3.09,1,2.07,2.11.32,3.44-7,5.33-15,7.62-23.56,8.31C741.38,551.92,739.18,551.77,737,551.77Z" transform="translate(-0.8 -22.84)"/><path class="cls-10" d="M639.17,201.61a29.18,29.18,0,0,1,7.44,17.3c1,12.29-2.79,23.52-7.47,34.56-3.8,9-8.45,17.57-11.71,26.77-.58,1.64-1.44,2-2.87,1.49-5.61-1.92-11.09-4.09-15.42-8.36-3.28-3.25-6.39-6.71-9.86-9.75-2.17-1.9-2.34-3.52-1.1-6,5.79-11.47,12.7-22,23.57-29.38A35.13,35.13,0,0,0,636.64,208,60.65,60.65,0,0,1,639.17,201.61Z" transform="translate(-0.8 -22.84)"/><path class="cls-8" d="M530.46,169.2c12.13,8.07,19.42,18.62,21.29,32.69,1.65,12.42.73,24.79-.64,37.15-.07.64-.1,1.28-.11,1.92-.21,8.55,0,7-7.55,7.52a40.41,40.41,0,0,1-26.36-7.86,3.79,3.79,0,0,1-1.79-4.44c2.73-14.12,6.15-28,13.13-40.72,4.35-7.91,3.27-16.07,2.22-24.35C530.59,170.66,530.56,170.2,530.46,169.2Z" transform="translate(-0.8 -22.84)"/><path class="cls-10" d="M713.3,638.73c-10,1.87-18.87.52-27.63-1.9-17.38-4.81-30.42-16-41.91-29.25-4.14-4.79-3.82-4.82-.1-9.87,5.64-7.67,12.58-13.4,21.86-16.08,1.41-.41,2.58-1,3.7.57,5,7,11.6,12.64,16.88,19.42,2,2.55,3.92,5.37,4.29,8.5,1.19,10.24,7.52,16.75,15.25,22.46C708,634.31,710.22,636.24,713.3,638.73Z" transform="translate(-0.8 -22.84)"/><path class="cls-8" d="M367,205c20,2.8,34.54,13.67,45.76,29.6a122.24,122.24,0,0,1,13.44,25.84c.9,2.28.1,2.88-1.77,3.47-9.27,2.9-18.56,5.76-27.76,8.88-2.16.74-3-.15-4-1.55-5.92-7.74-8.76-16.71-10.35-26.13a109.18,109.18,0,0,0-14.66-38.49A9.82,9.82,0,0,1,367,205Z" transform="translate(-0.8 -22.84)"/><path class="cls-9" d="M620.7,703.57c-18.08-2.9-29.57-14-38.63-28.11-6.52-10.2-11.13-21.32-14.9-32.8-.6-1.84-.78-2.79,1.74-3.26,10.29-1.94,20.53-4.1,30.75-6.36,1.84-.4,2.3.44,2.75,1.7,4.69,13.16,9.17,26.35,8.73,40.63a29,29,0,0,0,5.48,18.43A23.34,23.34,0,0,1,620.7,703.57Z" transform="translate(-0.8 -22.84)"/><path class="cls-9" d="M450.32,722.2A102,102,0,0,1,439,685.66a80,80,0,0,1,4.14-37.43c2.27-6.16,2.34-6.38,8.65-5.43a54.61,54.61,0,0,1,24.42,9.71c2.47,1.79,3.09,3.52,1.62,6.37a35,35,0,0,0-2.75,8,74.86,74.86,0,0,1-11.33,25.08c-3.18,4.66-5.7,9.54-6.34,15.45C456.78,712.74,454,717.49,450.32,722.2Z" transform="translate(-0.8 -22.84)"/><path class="cls-8" d="M305.63,634.78c.4-11.84,4.09-21.3,9.6-30.1a112,112,0,0,1,27.34-30c2.35-1.78,4-2.16,6.45.11,8.29,7.57,13.49,17,17.35,27.3a1.78,1.78,0,0,1-1.25,2.67c-5.33,1.8-9.8,5-13.91,8.73-6.37,5.75-14.32,8.36-22.12,11.24-6.3,2.34-11.76,5.44-15,11.79-1.12,2.2-3.32,3.87-5.06,5.74-1.35,1.46-2.2,1-2.46-.81C306.2,638.84,305.39,636.23,305.63,634.78Z" transform="translate(-0.8 -22.84)"/><path class="cls-8" d="M726.86,282.57c-.36,11.6-5.24,20.44-11.5,28.53a113.92,113.92,0,0,1-30.56,27.3c-3.23,2-5.29,2-8.09-1A45.62,45.62,0,0,1,664.15,312c-.17-1.15-.66-2.21.67-3,10.9-6.72,21.32-14.75,33.94-17.7,10.22-2.39,18.88-6.2,24.89-15,1-1.41,1.9-1.28,2.26.42C726.38,278.93,727.11,281.16,726.86,282.57Z" transform="translate(-0.8 -22.84)"/><path class="cls-8" d="M348.72,680.7c-3.55-23.74-.87-45.08,14-63.77,3.51-4.4,8-8,10.65-13.1,1.1-2.06,2.54-1.2,3.89-.42a46.57,46.57,0,0,1,12.49,10.74,37.48,37.48,0,0,0,7.64,7.56c2.76,1.86,2.46,3.53,1,6-7.37,12.8-17.34,22.86-30.64,29.4-4.06,2-6.95,4.51-8.8,8.94A41.7,41.7,0,0,1,348.72,680.7Z" transform="translate(-0.8 -22.84)"/><path class="cls-10" d="M300.17,276.45c11.37.31,21.42,4.73,31.08,10.17,8.74,4.91,16.73,10.95,24.56,17.2,2.31,1.85,2.71,3.47,1.22,6.14a44.89,44.89,0,0,1-10.26,12.87,34.27,34.27,0,0,0-6.86,7.23c-1.56,2.38-3,2.05-5.14,1a54.2,54.2,0,0,1-22.89-21.62c-1.64-2.76-3.41-5.44-5.05-8.19-4.78-8-11.69-13.52-19.9-17.61-.85-.42-2.23-.4-2.21-1.71s.94-2,2.07-2.53A28.83,28.83,0,0,1,300.17,276.45Z" transform="translate(-0.8 -22.84)"/><path class="cls-9" d="M231,496.27l-.4.29.33-.37Z" transform="translate(-0.8 -22.84)"/><path class="cls-11" d="M506.5,580.61a132.11,132.11,0,0,1-132-132.44c.14-72.81,59.41-131.72,132.42-131.64,72.83.08,131.94,59.36,131.84,132.23A132.16,132.16,0,0,1,506.5,580.61Zm.19-6.81a125.2,125.2,0,1,0-125.33-125A125.32,125.32,0,0,0,506.69,573.8Z" transform="translate(-0.8 -22.84)"/><path class="cls-5" d="M469.94,600.5c-4.28,8.11-8.21,15-11.59,22.18-1.78,3.78-4.15,1.64-6.41,1.49-2.41-.16-3-1.5-3-3.82,0-10.39-.21-20.79-.23-31.19,0-1.1-.95-3.61,1.1-3.11s6.25-.94,6.26,3.57c0,6.81-.09,13.61-.14,20.41,0,.47.09.94.24,2.41,3.75-7.05,7.38-13.16,10.27-19.59,1.82-4,4.31-1.93,6.64-1.61,2.15.29,4,.71,3.82,3.94-.34,7.16-.11,14.34-.11,21.46,1.78.39,1.67-.93,2-1.58,2.91-6,5.73-12,8.6-18,.85-1.76,6.69-2.08,7.82-.47.51.72-.13,1.18-.38,1.69-5,10.07-10.16,20.09-15,30.23-1.39,2.87-3.27,1.22-4.83.92-1.75-.35-4.11,0-4.1-3.3,0-7.31-.4-14.63-.65-21.94C470.18,603.33,470.09,602.48,469.94,600.5Z" transform="translate(-0.8 -22.84)"/><path class="cls-12" d="M383.62,320.48c-2.21-2-.83-2.94.48-4.1s1.93-3.57,4.4-1.09c7.61,7.65,15.39,15.11,23.16,22.57,1.26,1.21,1.49,1.9.22,3.37-2.35,2.73-4.59,4-8.5,2.86-7-2-14.18-3.21-21-4.7,4,4.37,8,8.83,12.1,13.13,3.51,3.63,3.53,3.47,0,6.9-1.26,1.21-1.91,1.09-3.07-.05-7.78-7.65-15.63-15.22-23.43-22.84-.62-.61-2.14-1.39-.78-2.4,2-1.46,2.53-5,6.24-4.08,7,1.71,14,3.23,21,4.7,1.35.28,4.23.78,4.4.83C398.66,335.39,388.73,325.14,383.62,320.48Z" transform="translate(-0.8 -22.84)"/><path class="cls-12" d="M403.47,580.27c1.24,6.85-.47,13.07-1.4,19.38-5.73-2.74-6.72-4.37-6.13-10.21.33-3.18.72-6.36,1-9.55a9,9,0,0,0-.27-3.43c-1.28-4-3.9-4.5-6.57-1.46-1.94,2.21-4.05,4.32-5.76,6.7-2,2.75-3.15.65-4.36-.53s-3.82-1.66-1.47-4.29c7.17-8,14.19-16.2,21.2-24.38,1-1.21,1.7-1.51,3-.33,4.16,3.8,8.54,7.37,12.64,11.24,5,4.76,5.79,8.94,2.83,13.6C415,582,410.56,583.13,403.47,580.27Zm-.74-19.46a3.54,3.54,0,0,0-.71.51c-1.68,1.93-4.07,3.65-4.78,5.9-.53,1.69,2.43,2.79,3.84,4.15a40.21,40.21,0,0,0,3.58,2.91c2.33,1.8,4.51,1.59,6.4-.66s1.44-4.3-.5-6.13c-2.14-2-4.4-3.93-6.62-5.87A9.82,9.82,0,0,0,402.73,560.81Z" transform="translate(-0.8 -22.84)"/><path class="cls-13" d="M517.93,289.43c5.75,4.48,8.34,10.52,12.23,16.37-2.8,0-5-.09-7.1,0a3.08,3.08,0,0,1-3-1.76c-2.06-3.25-4.22-6.43-6.43-9.58a14.76,14.76,0,0,0-2.79-3.15,5.93,5.93,0,0,0-5.86-.8c-1.42.56-.55,2.55-.6,3.88-.11,3.08-.08,6.17,0,9.25.07,3.61-2.64,1.86-4.14,2s-3.38,1-3.34-2c.13-10.92.08-21.84,0-32.75,0-1.73.32-2.53,2.29-2.47,5.9.18,11.82,0,17.72.28s9.52,3.36,10.17,8.51c.74,5.78-1.84,9.69-7.65,11.62C519.06,289,518.74,289.12,517.93,289.43Zm-7.29-14.5c-6.48-.08-6.48-.08-6.35,6.35,0,.51,0,1,0,1.53,0,.92.39,1.44,1.35,1.42,3.44-.09,6.91.06,10.31-.36,2.48-.3,3.57-2.25,3.41-4.77a4.06,4.06,0,0,0-4.14-4.15C513.71,274.83,512.17,274.93,510.64,274.93Z" transform="translate(-0.8 -22.84)"/><path class="cls-5" d="M464.22,312.35c-1.45.5-1.63-.59-1.87-1.63-2.49-10.86-5-21.72-7.49-32.57-.37-1.54.12-2,1.53-2.37,7.62-1.73,15.24-3.46,22.82-5.34,2.86-.71,2.42,1.52,2.81,2.87s1.28,2.88-1.36,3.4c-5,1-10,2.46-15,3.45-2.11.41-2.3,1.18-1.94,3.07,1.1,5.61,1,5.62,6.59,4.3,3.37-.8,6.78-1.44,10.09-2.4,2.48-.71,3.17.36,3.5,2.51.27,1.76,1.17,3.28-1.86,3.72-4.42.65-8.73,2-13.12,2.93-1.94.41-2.36,1.29-2,3.19,1.45,7.5,1.39,7.51,8.71,5.77,3.48-.83,7-1.47,10.45-2.53,2.46-.76,3,.15,3.51,2.33s.7,3.38-2.13,3.95C479.73,308.58,472,310.53,464.22,312.35Z" transform="translate(-0.8 -22.84)"/><path class="cls-12" d="M629.41,373.56c-.13-4.05,1.78-7.12,4.61-9.77,1-.91,1.76-1.4,2.67.14,1.38,2.32,3.88,4,.88,7.33s-.08,10.58,4.38,12.06c3.13,1,5.74-1,5.29-4.4a77,77,0,0,0-1.89-8.23c-1.82-7.67.07-12.83,5.52-15s10.49.48,14.33,7.24c3.7,6.52,3.61,12-.2,16-1.55,1.64-2.73,2.54-4.17-.27-1.16-2.27-2.65-3.89-.41-6.66,2.07-2.55-1.46-9.27-4.73-9.93-2.35-.48-4,1.26-3.5,4.13.63,3.65,1.67,7.24,2.38,10.88,1.17,6-.93,10.4-5.94,12.8-4.8,2.31-10,1.07-13.75-3.49C631.81,382.68,629.55,378.55,629.41,373.56Z" transform="translate(-0.8 -22.84)"/><path class="cls-12" d="M552.93,313.74a23,23,0,0,1-11.63-3.54c-4.62-2.88-6.36-7.19-5.8-12.51.08-.77-.29-1.79,1.21-1.9a5.85,5.85,0,0,1,6.17,4.7c.81,4.3,5.93,7.56,10.23,6.5A4.81,4.81,0,0,0,557,303.6c.53-1.91-.61-3.24-2-4.24-3-2.18-6.2-4.12-9.15-6.37-3.25-2.48-5.08-5.75-4.4-10a9.27,9.27,0,0,1,8.44-8.17,19.69,19.69,0,0,1,15,4.7,8.74,8.74,0,0,1,3.21,5.54c.31,1.93,1.15,4.27-1,5.41-1.8,1-5.92-2-6.4-4.08-.83-3.63-6.86-6.59-10.25-5-2.32,1.07-2.49,3.66,0,5.58,3,2.37,6.37,4.3,9.43,6.63,3.71,2.84,5.78,6.45,4.54,11.37C562.88,310.67,558.84,313.83,552.93,313.74Z" transform="translate(-0.8 -22.84)"/><path class="cls-12" d="M364.65,558.91c-6-.39-9.45-5.5-12.33-11a11.6,11.6,0,0,1,1.47-13.65c.71-.84,1.62-3.23,3-1.24,1.17,1.64,4.81,2.32,2.79,5.67-2.72,4.53-1.86,8.76,2.31,11.77,1.77,1.27,3.67,1.88,5.72.61s1.85-3.29,1.3-5.15c-1-3.31-2.34-6.51-3.27-9.83-1.55-5.47.13-10,4.34-12.36s8.78-1.54,12.57,2.41,6.93,8.32,6.11,14.29a5.87,5.87,0,0,1-.66,2.2c-1,1.69-1.63,4.15-4,4.07-1.84,0-3.64-5.44-2.74-7.36,1.56-3.34-1.73-9.44-5.4-9.93-2.35-.31-3.32,1-3.27,3.15.07,2.36,1.12,4.47,1.89,6.63.95,2.65,2.09,5.24,2.29,8.1C377.26,553.82,372.49,558.91,364.65,558.91Z" transform="translate(-0.8 -22.84)"/><path class="cls-12" d="M625.24,365.34a21.84,21.84,0,0,0-1.78-1.56c-3.59-2.49-4.5-5.48-1.8-9.21,1.7-2.34,1-4.19-1.17-5.84a28,28,0,0,1-2.73-2.72c-5-5-5-5-11.32-2.33-1.58.66-6.92-2.61-7-4.31,0-.78.65-1,1.23-1.23q16.52-7.31,33-14.61c3.13-1.38,3.6,2.07,5.37,3.14s1.57,2.47.78,4.29C635,342.23,630.22,353.56,625.24,365.34Zm-6.83-27.27c2.34,2.26,4.19,4,6,5.79.71.69,1.48,1.33,2,0,1.49-3.8,3.86-7.25,4.84-11.79Z" transform="translate(-0.8 -22.84)"/><path class="cls-12" d="M384.83,373a21.74,21.74,0,0,1-8.61,14.48,9.49,9.49,0,0,1-9.54,1.1c-8.34-3.39-15.7-8.62-23.53-13-2.48-1.39.13-2.55.49-3.71,1-3.21,2.63-3.45,5.54-1.57,5.59,3.61,11.43,6.85,17.29,10,5.27,2.86,10.49-.11,11.18-6.09.33-2.82-1-4.65-3.3-6-6.29-3.71-12.48-7.6-18.92-11-3.54-1.89-1.18-3.46-.4-5.34.93-2.23,2-2.77,4.25-1.34,6.73,4.23,13.64,8.16,20.4,12.34C383.07,365,384.86,368.13,384.83,373Z" transform="translate(-0.8 -22.84)"/><path class="cls-12" d="M667.9,537.19a22.11,22.11,0,0,0-1.7,2.62c-1.57,3.6-4.07,4.54-7.58,2.81-3-1.48-5-.33-6.38,2.48a8.91,8.91,0,0,1-1.53,2.21c-3.82,3.94-5.26,7.91-.44,12.17,1,.9,1,1.89.08,3-1.2,1.48-2.23,3.09-3.54,4.94-7.1-10.62-14.07-21-21-31.48-1.68-2.52,1.11-3.51,1.86-5.18s1.68-2.69,3.85-2.16C643.43,531.49,655.4,534.26,667.9,537.19Zm-33.46.13.57-.22-.2-.35-.35.58c2.63,3.53,5.26,7.07,8.1,10.87l5.76-8.23C643.35,539.3,639.28,536.59,634.44,537.32Z" transform="translate(-0.8 -22.84)"/><path class="cls-12" d="M603,604.52c-.82.52-1.39.81-1.89,1.19-3.43,2.59-6.57,2.83-9.36-1-1.56-2.11-3.38-2.29-5.5-.66a13.1,13.1,0,0,1-3.39,1.79c-4.77,1.78-7.51,4.18-5.85,10.15,1.31,4.7-4.42,3.3-6.57,5.44-1.42-12.32-2.79-24.65-4.33-37-.25-2,.89-2.58,2.18-3,1.89-.61,3.42-3.41,5.78-1.43C583.7,588.15,593.26,596.29,603,604.52Zm-29.67-16c.61,4.58,1.11,8.35,1.63,12.12.1.71.17,2.09.87,1.8a52.59,52.59,0,0,0,7.74-4c.53-.33-.52-1.25-1-1.73C579.69,594.12,576.84,591.61,573.32,588.49Z" transform="translate(-0.8 -22.84)"/><path class="cls-12" d="M438.85,310.05c-1.2-7.32-2.08-14.72-3.73-21.93-.91-4,.25-5.95,3.81-7.11a23.55,23.55,0,0,0,2.51-1.2c1.31,8.92,2.6,17.58,3.86,26.24.37,2.53.28,5.22,1.12,7.58,1.63,4.54-.63,6.46-4.3,8.07-1.51.66-2.42.69-3.66-.45-9-8.36-18.1-16.65-27.14-24.94.16-.26.19-.4.28-.46,6-4.16,6-4.15,11.3.78C428,301.35,433,306,438.12,310.71l.7.56Z" transform="translate(-0.8 -22.84)"/><path class="cls-5" d="M611.3,570.38c-.78-3.78-1.18-7.24-2.26-10.47-1.42-4.25-.57-7.36,3.29-9.65a23.5,23.5,0,0,0,2-1.56c.78,4.36,1.86,8.3,2.11,12.28.56,8.58,3.44,15.91,10.26,21.37,2.44,2,1.76,3.23-.34,5-1.94,1.61-3.32,3.06-5.27,0-4.62-7.19-11.41-10.94-19.76-12.4-4-.71-7.9-2.11-11.89-3.21,3.73-5.7,5.27-6.27,11.43-4.35q4.57,1.44,9.15,2.86A10.51,10.51,0,0,0,611.3,570.38Z" transform="translate(-0.8 -22.84)"/><path class="cls-12" d="M591.93,333.76a33.73,33.73,0,0,1-5-3.77c-1-1,.65-2,1.23-2.86,4.7-6.89,9.45-13.75,14.32-20.51,1.29-1.79,1.2-2.8-.74-3.85-1.34-.73-2.44-1.91-3.8-2.61-2.64-1.36-2.91-2.74-1-5.17,1.38-1.76,2.19-1.86,3.91-.61,6.55,4.74,13.11,9.47,19.85,13.93,2.43,1.61,1.21,2.7.23,4.16s-1.81,2.92-4,1.12-4.49-4.79-6.87-4.12c-2,.57-3.24,4-4.78,6.24-3.74,5.36-7.45,10.75-11.21,16.11C593.47,332.54,593.17,333.49,591.93,333.76Z" transform="translate(-0.8 -22.84)"/><path class="cls-5" d="M551.85,616.56c.19,7.24-3.35,11.16-10.2,12.44-5.86,1.1-10.3-1.34-12.24-6.67-.53-1.45-.92-2.94,1.21-3,1.77-.09,3.74-3.52,5.35.1,1.23,2.77,3.11,4.09,6.08,3s2.86-3.55,2.23-6.11c-1.83-7.33-3.47-14.71-5.5-22-.88-3.13.92-3.42,3-3.82,1.82-.36,3.75-1.61,4.41,1.79C547.82,600.77,550.68,609.05,551.85,616.56Z" transform="translate(-0.8 -22.84)"/><path class="cls-12" d="M590,290c-.51,1-.81,1.55-1.11,2.11C584,301.36,579,310.57,574.29,320c-1.44,2.88-2.79,2.1-4.67,1s-3.93-1.37-2.13-4.57c5.22-9.24,10-18.72,15-28.1.5-.95.81-2.47,2.41-1.48S588.77,288.33,590,290Z" transform="translate(-0.8 -22.84)"/><path class="cls-12" d="M404.83,300.61c.52.64,1,1.2,1.45,1.82,6.25,8.94,12.42,17.94,18.75,26.81,2.12,3-.93,3.09-2.08,4s-2.29,3.14-4.16.37c-6.11-9-12.39-17.95-18.68-26.86-1-1.44-1.25-2.33.52-3.29A49.6,49.6,0,0,0,404.83,300.61Z" transform="translate(-0.8 -22.84)"/><path class="cls-5" d="M513,629.41c.16,3.07-1.7,2.66-3.4,2.5s-4.17,1.52-4.23-2.33q-.25-15.8-1.11-31.58c-.19-3.64,2.16-2.64,4-2.88,2.05-.26,3.68-.35,3.54,2.72C511.55,603.09,512.74,624.16,513,629.41Z" transform="translate(-0.8 -22.84)"/><path class="cls-5" d="M424.56,612.36c-4.87-.54-6.39-3.41-4.69-6.91,4.57-9.39,8.83-16.88,13.62-25.83,1.68-3.49,3.12-2,5.24-1.06s3,1.87,1.6,4.44c-5,9.3-9.48,18.41-14.33,27.44C425.53,611.31,425.19,612.33,424.56,612.36Z" transform="translate(-0.8 -22.84)"/><path class="cls-14" d="M506.69,573.8A125.2,125.2,0,1,1,631.87,448.57,125.29,125.29,0,0,1,506.69,573.8ZM553.46,385c2.13-3-1.29-3.4-2.26-5.46-.11,1.22-.18,1.91-.24,2.6-2.9-.67-5,.47-6.8,3.74,0-4.88,1.81-8.51,2.19-12.93-2.65,2.73-4.43,5.69-7.67,7.46,1.41-12.91,2.77-25.46,4.14-38-5.66,11-11.22,21.68-19,31.54-1.74-3.19-1.7-6.4-2.75-10.19-1.38,3.29-2.34,5.75-3.47,8.13-.36.75-1.07,2.58-2,1.32-2.53-3.28-6.38-2.16-9.4-3.47-5.91-2.56-11.31-1.82-16.47,1.47-2.27-4.54-4.31-8.81-6.52-13-3.38-6.4-6-13.19-10.06-19.25l-.37-.94c0,.11-.13.23-.12.33,0,.33-.05.8.55.53-.36,8.48,1.35,16.81,1.94,25.21.34,4.88.85,9.74,1.35,15.36l-6.6-5.76c.27,2,.49,3.56.65,5.08s.27,3.11.42,5c-7.17-4.32-8.68-4-13.55,2.43a23.29,23.29,0,0,0-2.22,3.59c-3,6-3,6-9.44,3.33l-3.54-1.49-25.08-10.36c6.44,9.52,14.38,17.48,22.33,25.36,2.62,2.6,3.54,4.56,1.86,7.72a7.77,7.77,0,0,0-1,2.49c-.43,2.94-4.85,3.83-3.77,7.49a2.67,2.67,0,0,0-3.35,2.64c.22,5.67-3.5,6.15-7.65,6.39a24.1,24.1,0,0,0-3.37.72l9.08,2.53c-3.45,1.56-5.2,4-8.61,4.41-11,1.46-21.93,3.49-32.89,5.29,6.35,1.78,12.73,3.11,19.11,4.44,6.14,1.28,12.28,2.61,18.45,3.8,1.65.31,2.58.95,2.61,2.68,0,2-1.57,1.27-2.52,1.48-1.68.37-3.4.54-5.18.81.56,1.18,1.55,1.09,2.38,1.28,5.4,1.2,8.49,4.31,8.73,10.06.16,3.72.77,7.41,1,11.12.61,9.31-2.49,17.12-9.64,23.24-2.42,2.07-4.82,4.19-7.23,6.28l-1.26.59c.57.53,1.16.32,1.76.08,8.47-4,16.72-8.39,25.4-11.91a5.24,5.24,0,0,1,5.4.51c1.63,1.2-.29,2.44-.34,3.77,1.82.64,3.68,1.15,5.46,1.72,1.2.39,3.88,5.61,4.54-.54,0-.13.89-.27,1.36-.25,2.66.12,5.63-.18,5.09,4.08-.11.9,0,2.31,1.08,2.65,1.22.39,1.55-1.05,2.22-1.76.3-.32.47-.94,1.32-.32v47.59a237.07,237.07,0,0,1,15.26-28.56c1.33-2.18,2.26-3,5.24-1.76,4.47,1.82,9.19-.7,13.82-1.17,1.13-.11.69-1.7,1.38-2.58l2.51,4.27c1.13-2.09,2-3.79,3-5.65,2.78,2.47,5.25,4.66,6.82,8,.87-2.3,1-4.79,4-4.84,2.75-.05,2.67,2.42,3.49,3.94,2.61,4.85,5,9.81,7.51,14.73l7.21,14.15.74-.24c-1.2-13.27-2.39-26.55-3.68-40.94,2.63,3,4.76,4.68,6.6,6.92-.38-3.5-.76-7-1.21-11.2l8.65,6c.71-4.06,3.64-6.64,5.2-9.93,1.13-2.39,2.86-3.1,4.8-2.32,2.83,1.14,5.18.25,7.15-1.27,2.17-1.67,3.9-1.13,6-.19,7,3.16,13.65,7,20.86,9.74l.81.38-.21-.88A195.15,195.15,0,0,0,576.51,493c-1.48-1.48-2.68-3.65-5.37-3.08-.7.15-.94-.28-.9-.81.16-2.36-1-4.83.73-7.07,2.62-3.42,4.36-7.48,7.85-10.27A3.27,3.27,0,0,0,580,468c-1.37-2.93.34-3.2,2.51-3.48,2.81-.37,5.59-.91,9.1-1.49l-8-5.5,39.89-6.76c-7.66-2.14-15.28-3.79-22.9-5.44l-15-3.22c-1.38-.3-2.42-.92-2.37-2.51s1.47-1.06,2.33-1.25c1.79-.39,3.6-.66,5.8-1-.76-.31-1.1-.48-1.45-.58a13.12,13.12,0,0,0-1.51-.33c-4.93-.79-7.16-2.89-7.93-7.93a139.39,139.39,0,0,1-1.22-21.13,13.4,13.4,0,0,1,4-9.29,182.5,182.5,0,0,1,13.57-13.11l.95-.93a.88.88,0,0,0-1.43.37c-6.46,2.73-12.25,6.72-18.47,9.92-1.91,1-4.07,2.7-6.07,1.76C565.35,393,557.34,392.39,553.46,385Zm-10.58-45a3.72,3.72,0,0,0-.22.7c0,.09.12.2.18.3.07-.09.21-.2.2-.28A4.29,4.29,0,0,0,542.88,340Z" transform="translate(-0.8 -22.84)"/><path class="cls-7" d="M402.73,560.81a9.82,9.82,0,0,1,1.21.81c2.22,1.94,4.48,3.84,6.62,5.87,1.94,1.83,2.31,4,.5,6.13s-4.07,2.46-6.4.66a40.21,40.21,0,0,1-3.58-2.91c-1.41-1.36-4.37-2.46-3.84-4.15.71-2.25,3.1-4,4.78-5.9A3.54,3.54,0,0,1,402.73,560.81Z" transform="translate(-0.8 -22.84)"/><path class="cls-7" d="M510.64,274.93c1.53,0,3.07-.1,4.59,0a4.06,4.06,0,0,1,4.14,4.15c.16,2.52-.93,4.47-3.41,4.77-3.4.42-6.87.27-10.31.36-1,0-1.36-.5-1.35-1.42,0-.51,0-1,0-1.53C504.16,274.85,504.16,274.85,510.64,274.93Z" transform="translate(-0.8 -22.84)"/><path class="cls-1" d="M618.41,338.07l12.86-6c-1,4.54-3.35,8-4.84,11.79-.53,1.36-1.3.72-2,0C622.6,342.09,620.75,340.33,618.41,338.07Z" transform="translate(-0.8 -22.84)"/><path class="cls-1" d="M634.29,536.36c4.45.7,9.06,2.94,14,3.61l-5.76,8.23C639.72,544.4,634.29,536.36,634.29,536.36Z" transform="translate(-0.8 -22.84)"/><path class="cls-1" d="M573.32,588.49c3.52,3.12,6.37,5.63,9.19,8.17.53.48,1.58,1.4,1,1.73a52.59,52.59,0,0,1-7.74,4c-.7.29-.77-1.09-.87-1.8C574.43,596.84,573.93,593.07,573.32,588.49Z" transform="translate(-0.8 -22.84)"/><path class="cls-13" d="M596.85,384.92A182.5,182.5,0,0,0,583.28,398a13.4,13.4,0,0,0-4,9.29,139.39,139.39,0,0,0,1.22,21.13c.77,5,3,7.14,7.93,7.93a13.12,13.12,0,0,1,1.51.33c.35.1.69.27,1.45.58-2.2.39-4,.66-5.8,1-.86.19-2.27-.44-2.33,1.25s1,2.21,2.37,2.51l15,3.22c7.62,1.65,15.24,3.3,22.9,5.44l-39.89,6.76,8,5.5c-3.51.58-6.29,1.12-9.1,1.49-2.17.28-3.88.55-2.51,3.48a3.27,3.27,0,0,1-1.19,3.82c-3.49,2.79-5.23,6.85-7.85,10.27-1.72,2.24-.57,4.71-.73,7.07,0,.53.2,1,.9.81,2.69-.57,3.89,1.6,5.37,3.08a195.15,195.15,0,0,1,18.9,21.31l-.6.5c-7.21-2.69-13.86-6.58-20.86-9.74-2.09-.94-3.82-1.48-6,.19-2,1.52-4.32,2.41-7.15,1.27-1.94-.78-3.67-.07-4.8,2.32-1.56,3.29-4.49,5.87-5.2,9.93l-8.65-6c.45,4.21.83,7.7,1.21,11.2-1.84-2.24-4-4-6.6-6.92,1.29,14.39,2.48,27.67,3.68,40.94l-.74.24-7.21-14.15c-2.49-4.92-4.9-9.88-7.51-14.73-.82-1.52-.74-4-3.49-3.94-3,0-3.09,2.54-4,4.84-1.57-3.38-4-5.57-6.82-8-1,1.86-1.91,3.56-3,5.65l-2.51-4.27c-.69.88-.25,2.47-1.38,2.58-4.63.47-9.35,3-13.82,1.17-3-1.22-3.91-.42-5.24,1.76a237.07,237.07,0,0,0-15.26,28.56V510.13c-.85-.62-1,0-1.32.32-.67.71-1,2.15-2.22,1.76-1.06-.34-1.19-1.75-1.08-2.65.54-4.26-2.43-4-5.09-4.08-.47,0-1.35.12-1.36.25-.66,6.15-3.34.93-4.54.54-1.78-.57-3.64-1.08-5.46-1.72.05-1.33,2-2.57.34-3.77a5.24,5.24,0,0,0-5.4-.51c-8.68,3.52-16.93,7.94-25.4,11.91l-.5-.67c2.41-2.09,4.81-4.21,7.23-6.28,7.15-6.12,10.25-13.93,9.64-23.24-.24-3.71-.85-7.4-1-11.12-.24-5.75-3.33-8.86-8.73-10.06-.83-.19-1.82-.1-2.38-1.28,1.78-.27,3.5-.44,5.18-.81.95-.21,2.56.49,2.52-1.48,0-1.73-1-2.37-2.61-2.68-6.17-1.19-12.31-2.52-18.45-3.8-6.38-1.33-12.76-2.66-19.11-4.44,11-1.8,21.88-3.83,32.89-5.29,3.41-.45,5.16-2.85,8.61-4.41l-9.08-2.53a24.1,24.1,0,0,1,3.37-.72c4.15-.24,7.87-.72,7.65-6.39a2.67,2.67,0,0,1,3.35-2.64c-1.08-3.66,3.34-4.55,3.77-7.49a7.77,7.77,0,0,1,1-2.49c1.68-3.16.76-5.12-1.86-7.72-7.95-7.88-15.89-15.84-22.33-25.36l25.08,10.36,3.54,1.49c6.47,2.67,6.45,2.66,9.44-3.33a23.29,23.29,0,0,1,2.22-3.59c4.87-6.44,6.38-6.75,13.55-2.43-.15-1.87-.26-3.43-.42-5s-.38-3-.65-5.08l6.6,5.76c-.5-5.62-1-10.48-1.35-15.36-.59-8.4-2.3-16.73-1.94-25.21l-.06.08c4,6.06,6.68,12.85,10.06,19.25,2.21,4.18,4.25,8.45,6.52,13,5.16-3.29,10.56-4,16.47-1.47,3,1.31,6.87.19,9.4,3.47,1,1.26,1.68-.57,2-1.32,1.13-2.38,2.09-4.84,3.47-8.13,1.05,3.79,1,7,2.75,10.19,7.82-9.86,13.38-20.55,19-31.54-1.37,12.54-2.73,25.09-4.14,38,3.24-1.77,5-4.73,7.67-7.46-.38,4.42-2.22,8-2.19,12.93,1.43-2.92,3.79-4.52,6.8-3.74.13-.77.11-2.18.24-2.6.78,1.57,2.28,1.9,2.85,3.21a2.39,2.39,0,0,1-.59,2.25c3.88,7.37,11.89,8,18.37,11,2,.94,4.16-.78,6.07-1.76,6.22-3.2,12-7.19,18.47-9.92Z" transform="translate(-0.8 -22.84)"/><path class="cls-13" d="M473.13,338.91c-.6.27-.52-.2-.55-.53,0-.1.08-.22.12-.33.12.31.25.62.37.94Z" transform="translate(-0.8 -22.84)"/><path class="cls-13" d="M417.94,512.18c-.6.24-1.19.45-1.76-.08l1.26-.59Z" transform="translate(-0.8 -22.84)"/><path class="cls-13" d="M596.37,384.36a.88.88,0,0,1,1.43-.37l-.95.93Z" transform="translate(-0.8 -22.84)"/><path class="cls-13" d="M542.88,340a4.29,4.29,0,0,1,.16.72c0,.08-.13.19-.2.28-.06-.1-.2-.21-.18-.3A3.72,3.72,0,0,1,542.88,340Z" transform="translate(-0.8 -22.84)"/><path class="cls-13" d="M595.41,514.35l.21.88-.81-.38Z" transform="translate(-0.8 -22.84)"/></g></svg>